<svg xmlns="http://www.w3.org/2000/svg" width="1200" height="760" viewBox="0 0 1200 760">
<rect width="100%" height="100%" fill="#fcfbf7" />
<text x="95" y="46" font-family="Menlo, Monaco, monospace" font-size="26" fill="#1f2933">Structural rejection collapse by table depth</text>
<text x="95" y="72" font-family="Menlo, Monaco, monospace" font-size="14" fill="#52606d">Observed proxy rejection across deterministic odd candidate corpora, with exact structural ceilings for each covered prime limit</text>
<line x1="95" y1="670.00" x2="1020" y2="670.00" stroke="#d9e2ec" stroke-width="1" />
<text x="81" y="675.00" text-anchor="end" font-family="Menlo, Monaco, monospace" font-size="13" fill="#486581">88.0%</text>
<line x1="95" y1="573.33" x2="1020" y2="573.33" stroke="#d9e2ec" stroke-width="1" />
<text x="81" y="578.33" text-anchor="end" font-family="Menlo, Monaco, monospace" font-size="13" fill="#486581">89.0%</text>
<line x1="95" y1="476.67" x2="1020" y2="476.67" stroke="#d9e2ec" stroke-width="1" />
<text x="81" y="481.67" text-anchor="end" font-family="Menlo, Monaco, monospace" font-size="13" fill="#486581">90.0%</text>
<line x1="95" y1="380.00" x2="1020" y2="380.00" stroke="#d9e2ec" stroke-width="1" />
<text x="81" y="385.00" text-anchor="end" font-family="Menlo, Monaco, monospace" font-size="13" fill="#486581">91.0%</text>
<line x1="95" y1="283.33" x2="1020" y2="283.33" stroke="#d9e2ec" stroke-width="1" />
<text x="81" y="288.33" text-anchor="end" font-family="Menlo, Monaco, monospace" font-size="13" fill="#486581">92.0%</text>
<line x1="95" y1="186.67" x2="1020" y2="186.67" stroke="#d9e2ec" stroke-width="1" />
<text x="81" y="191.67" text-anchor="end" font-family="Menlo, Monaco, monospace" font-size="13" fill="#486581">93.0%</text>
<line x1="95" y1="90.00" x2="1020" y2="90.00" stroke="#d9e2ec" stroke-width="1" />
<text x="81" y="95.00" text-anchor="end" font-family="Menlo, Monaco, monospace" font-size="13" fill="#486581">94.0%</text>
<line x1="95" y1="670" x2="1020" y2="670" stroke="#243b53" stroke-width="1.5" />
<line x1="95" y1="90" x2="95" y2="670" stroke="#243b53" stroke-width="1.5" />
<line x1="95.00" y1="90" x2="95.00" y2="670" stroke="#e4e7eb" stroke-width="1" />
<text x="95.00" y="698" text-anchor="middle" font-family="Menlo, Monaco, monospace" font-size="13" fill="#243b53">2048</text>
<line x1="403.33" y1="90" x2="403.33" y2="670" stroke="#e4e7eb" stroke-width="1" />
<text x="403.33" y="698" text-anchor="middle" font-family="Menlo, Monaco, monospace" font-size="13" fill="#243b53">4096</text>
<line x1="711.67" y1="90" x2="711.67" y2="670" stroke="#e4e7eb" stroke-width="1" />
<text x="711.67" y="698" text-anchor="middle" font-family="Menlo, Monaco, monospace" font-size="13" fill="#243b53">8192</text>
<line x1="1020.00" y1="90" x2="1020.00" y2="670" stroke="#e4e7eb" stroke-width="1" />
<text x="1020.00" y="698" text-anchor="middle" font-family="Menlo, Monaco, monospace" font-size="13" fill="#243b53">16384</text>
<text x="557.50" y="732" text-anchor="middle" font-family="Menlo, Monaco, monospace" font-size="14" fill="#243b53">Candidate bit length</text>
<text x="24" y="380.00" transform="rotate(-90 24 380.00)" text-anchor="middle" font-family="Menlo, Monaco, monospace" font-size="14" fill="#243b53">Composite rejection rate</text>
<line x1="95" y1="370.67" x2="1020" y2="370.67" stroke="#0b6e4f" stroke-width="2" stroke-dasharray="8 6" opacity="0.65" />
<polyline fill="none" stroke="#0b6e4f" stroke-width="3.5" points="95.00,527.17 403.33,310.05 711.67,333.65 1020.00,376.13" />
<circle cx="95.00" cy="527.17" r="5.5" fill="#0b6e4f" stroke="#fcfbf7" stroke-width="2" />
<circle cx="403.33" cy="310.05" r="5.5" fill="#0b6e4f" stroke="#fcfbf7" stroke-width="2" />
<circle cx="711.67" cy="333.65" r="5.5" fill="#0b6e4f" stroke="#fcfbf7" stroke-width="2" />
<circle cx="1020.00" cy="376.13" r="5.5" fill="#0b6e4f" stroke="#fcfbf7" stroke-width="2" />
<line x1="95" y1="295.67" x2="1020" y2="295.67" stroke="#c84c09" stroke-width="2" stroke-dasharray="8 6" opacity="0.65" />
<polyline fill="none" stroke="#c84c09" stroke-width="3.5" points="95.00,430.41 403.33,253.41 711.67,262.85 1020.00,319.49" />
<circle cx="95.00" cy="430.41" r="5.5" fill="#c84c09" stroke="#fcfbf7" stroke-width="2" />
<circle cx="403.33" cy="253.41" r="5.5" fill="#c84c09" stroke="#fcfbf7" stroke-width="2" />
<circle cx="711.67" cy="262.85" r="5.5" fill="#c84c09" stroke="#fcfbf7" stroke-width="2" />
<circle cx="1020.00" cy="319.49" r="5.5" fill="#c84c09" stroke="#fcfbf7" stroke-width="2" />
<line x1="95" y1="237.80" x2="1020" y2="237.80" stroke="#2b59c3" stroke-width="2" stroke-dasharray="8 6" opacity="0.65" />
<polyline fill="none" stroke="#2b59c3" stroke-width="3.5" points="95.00,369.05 403.33,196.77 711.67,206.21 1020.00,272.29" />
<circle cx="95.00" cy="369.05" r="5.5" fill="#2b59c3" stroke="#fcfbf7" stroke-width="2" />
<circle cx="403.33" cy="196.77" r="5.5" fill="#2b59c3" stroke="#fcfbf7" stroke-width="2" />
<circle cx="711.67" cy="206.21" r="5.5" fill="#2b59c3" stroke="#fcfbf7" stroke-width="2" />
<circle cx="1020.00" cy="272.29" r="5.5" fill="#2b59c3" stroke="#fcfbf7" stroke-width="2" />
<text x="1044" y="100" font-family="Menlo, Monaco, monospace" font-size="14" fill="#243b53">Covered odd primes</text>
<line x1="1044" y1="114.00" x2="1078" y2="114.00" stroke="#0b6e4f" stroke-width="3.5" />
<line x1="1044" y1="128.00" x2="1078" y2="128.00" stroke="#0b6e4f" stroke-width="2" stroke-dasharray="8 6" opacity="0.65" />
<text x="1088" y="119.00" font-family="Menlo, Monaco, monospace" font-size="13" fill="#243b53">≤ 300,007</text>
<text x="1088" y="134.00" font-family="Menlo, Monaco, monospace" font-size="12" fill="#52606d">observed / theory 91.10%</text>
<line x1="1044" y1="172.00" x2="1078" y2="172.00" stroke="#c84c09" stroke-width="3.5" />
<line x1="1044" y1="186.00" x2="1078" y2="186.00" stroke="#c84c09" stroke-width="2" stroke-dasharray="8 6" opacity="0.65" />
<text x="1088" y="177.00" font-family="Menlo, Monaco, monospace" font-size="13" fill="#243b53">≤ 1,000,003</text>
<text x="1088" y="192.00" font-family="Menlo, Monaco, monospace" font-size="12" fill="#52606d">observed / theory 91.87%</text>
<line x1="1044" y1="230.00" x2="1078" y2="230.00" stroke="#2b59c3" stroke-width="3.5" />
<line x1="1044" y1="244.00" x2="1078" y2="244.00" stroke="#2b59c3" stroke-width="2" stroke-dasharray="8 6" opacity="0.65" />
<text x="1088" y="235.00" font-family="Menlo, Monaco, monospace" font-size="13" fill="#243b53">≤ 3,000,000</text>
<text x="1088" y="250.00" font-family="Menlo, Monaco, monospace" font-size="12" fill="#52606d">observed / theory 92.47%</text>
<text x="1020" y="702" text-anchor="end" font-family="Menlo, Monaco, monospace" font-size="12" fill="#52606d">solid: observed deterministic corpus rejection</text>
<text x="1020" y="722" text-anchor="end" font-family="Menlo, Monaco, monospace" font-size="12" fill="#52606d">dashed: exact structural ceiling from covered small-prime set</text>
</svg>
