<?xml version="1.0" encoding="utf-8" standalone="no"?>
<!DOCTYPE svg PUBLIC "-//W3C//DTD SVG 1.1//EN"
  "http://www.w3.org/Graphics/SVG/1.1/DTD/svg11.dtd">
<svg xmlns:xlink="http://www.w3.org/1999/xlink" width="864pt" height="720pt" viewBox="0 0 864 720" xmlns="http://www.w3.org/2000/svg" version="1.1">
 <metadata>
  <rdf:RDF xmlns:dc="http://purl.org/dc/elements/1.1/" xmlns:cc="http://creativecommons.org/ns#" xmlns:rdf="http://www.w3.org/1999/02/22-rdf-syntax-ns#">
   <cc:Work>
    <dc:type rdf:resource="http://purl.org/dc/dcmitype/StillImage"/>
    <dc:date>2026-04-04T22:23:35.644802</dc:date>
    <dc:format>image/svg+xml</dc:format>
    <dc:creator>
     <cc:Agent>
      <dc:title>Matplotlib v3.10.8, https://matplotlib.org/</dc:title>
     </cc:Agent>
    </dc:creator>
   </cc:Work>
  </rdf:RDF>
 </metadata>
 <defs>
  <style type="text/css">*{stroke-linejoin: round; stroke-linecap: butt}</style>
 </defs>
 <g id="figure_1">
  <g id="patch_1">
   <path d="M 0 720 
L 864 720 
L 864 0 
L 0 0 
z
" style="fill: #ffffff"/>
  </g>
  <g id="axes_1">
   <g id="patch_2">
    <path d="M 50.96 214.626667 
L 853.2 214.626667 
L 853.2 26.88 
L 50.96 26.88 
z
" style="fill: #ffffff"/>
   </g>
   <g id="matplotlib.axis_1">
    <g id="xtick_1">
     <g id="line2d_1">
      <path d="M 87.425455 214.626667 
L 87.425455 26.88 
" clip-path="url(#p5b027b4c53)" style="fill: none; stroke: #b0b0b0; stroke-opacity: 0.2; stroke-width: 0.6; stroke-linecap: square"/>
     </g>
     <g id="line2d_2">
      <defs>
       <path id="mbccc6e4f18" d="M 0 0 
L 0 3.5 
" style="stroke: #000000; stroke-width: 0.8"/>
      </defs>
      <g>
       <use xlink:href="#mbccc6e4f18" x="87.425455" y="214.626667" style="stroke: #000000; stroke-width: 0.8"/>
      </g>
     </g>
     <g id="text_1">
      <!-- 0 -->
      <g transform="translate(84.244205 229.225104) scale(0.1 -0.1)">
       <defs>
        <path id="DejaVuSans-30" d="M 2034 4250 
Q 1547 4250 1301 3770 
Q 1056 3291 1056 2328 
Q 1056 1369 1301 889 
Q 1547 409 2034 409 
Q 2525 409 2770 889 
Q 3016 1369 3016 2328 
Q 3016 3291 2770 3770 
Q 2525 4250 2034 4250 
z
M 2034 4750 
Q 2819 4750 3233 4129 
Q 3647 3509 3647 2328 
Q 3647 1150 3233 529 
Q 2819 -91 2034 -91 
Q 1250 -91 836 529 
Q 422 1150 422 2328 
Q 422 3509 836 4129 
Q 1250 4750 2034 4750 
z
" transform="scale(0.015625)"/>
       </defs>
       <use xlink:href="#DejaVuSans-30"/>
      </g>
     </g>
    </g>
    <g id="xtick_2">
     <g id="line2d_3">
      <path d="M 230.427237 214.626667 
L 230.427237 26.88 
" clip-path="url(#p5b027b4c53)" style="fill: none; stroke: #b0b0b0; stroke-opacity: 0.2; stroke-width: 0.6; stroke-linecap: square"/>
     </g>
     <g id="line2d_4">
      <g>
       <use xlink:href="#mbccc6e4f18" x="230.427237" y="214.626667" style="stroke: #000000; stroke-width: 0.8"/>
      </g>
     </g>
     <g id="text_2">
      <!-- 50 -->
      <g transform="translate(224.064737 229.225104) scale(0.1 -0.1)">
       <defs>
        <path id="DejaVuSans-35" d="M 691 4666 
L 3169 4666 
L 3169 4134 
L 1269 4134 
L 1269 2991 
Q 1406 3038 1543 3061 
Q 1681 3084 1819 3084 
Q 2600 3084 3056 2656 
Q 3513 2228 3513 1497 
Q 3513 744 3044 326 
Q 2575 -91 1722 -91 
Q 1428 -91 1123 -41 
Q 819 9 494 109 
L 494 744 
Q 775 591 1075 516 
Q 1375 441 1709 441 
Q 2250 441 2565 725 
Q 2881 1009 2881 1497 
Q 2881 1984 2565 2268 
Q 2250 2553 1709 2553 
Q 1456 2553 1204 2497 
Q 953 2441 691 2322 
L 691 4666 
z
" transform="scale(0.015625)"/>
       </defs>
       <use xlink:href="#DejaVuSans-35"/>
       <use xlink:href="#DejaVuSans-30" transform="translate(63.623047 0)"/>
      </g>
     </g>
    </g>
    <g id="xtick_3">
     <g id="line2d_5">
      <path d="M 373.42902 214.626667 
L 373.42902 26.88 
" clip-path="url(#p5b027b4c53)" style="fill: none; stroke: #b0b0b0; stroke-opacity: 0.2; stroke-width: 0.6; stroke-linecap: square"/>
     </g>
     <g id="line2d_6">
      <g>
       <use xlink:href="#mbccc6e4f18" x="373.42902" y="214.626667" style="stroke: #000000; stroke-width: 0.8"/>
      </g>
     </g>
     <g id="text_3">
      <!-- 100 -->
      <g transform="translate(363.88527 229.225104) scale(0.1 -0.1)">
       <defs>
        <path id="DejaVuSans-31" d="M 794 531 
L 1825 531 
L 1825 4091 
L 703 3866 
L 703 4441 
L 1819 4666 
L 2450 4666 
L 2450 531 
L 3481 531 
L 3481 0 
L 794 0 
L 794 531 
z
" transform="scale(0.015625)"/>
       </defs>
       <use xlink:href="#DejaVuSans-31"/>
       <use xlink:href="#DejaVuSans-30" transform="translate(63.623047 0)"/>
       <use xlink:href="#DejaVuSans-30" transform="translate(127.246094 0)"/>
      </g>
     </g>
    </g>
    <g id="xtick_4">
     <g id="line2d_7">
      <path d="M 516.430802 214.626667 
L 516.430802 26.88 
" clip-path="url(#p5b027b4c53)" style="fill: none; stroke: #b0b0b0; stroke-opacity: 0.2; stroke-width: 0.6; stroke-linecap: square"/>
     </g>
     <g id="line2d_8">
      <g>
       <use xlink:href="#mbccc6e4f18" x="516.430802" y="214.626667" style="stroke: #000000; stroke-width: 0.8"/>
      </g>
     </g>
     <g id="text_4">
      <!-- 150 -->
      <g transform="translate(506.887052 229.225104) scale(0.1 -0.1)">
       <use xlink:href="#DejaVuSans-31"/>
       <use xlink:href="#DejaVuSans-35" transform="translate(63.623047 0)"/>
       <use xlink:href="#DejaVuSans-30" transform="translate(127.246094 0)"/>
      </g>
     </g>
    </g>
    <g id="xtick_5">
     <g id="line2d_9">
      <path d="M 659.432585 214.626667 
L 659.432585 26.88 
" clip-path="url(#p5b027b4c53)" style="fill: none; stroke: #b0b0b0; stroke-opacity: 0.2; stroke-width: 0.6; stroke-linecap: square"/>
     </g>
     <g id="line2d_10">
      <g>
       <use xlink:href="#mbccc6e4f18" x="659.432585" y="214.626667" style="stroke: #000000; stroke-width: 0.8"/>
      </g>
     </g>
     <g id="text_5">
      <!-- 200 -->
      <g transform="translate(649.888835 229.225104) scale(0.1 -0.1)">
       <defs>
        <path id="DejaVuSans-32" d="M 1228 531 
L 3431 531 
L 3431 0 
L 469 0 
L 469 531 
Q 828 903 1448 1529 
Q 2069 2156 2228 2338 
Q 2531 2678 2651 2914 
Q 2772 3150 2772 3378 
Q 2772 3750 2511 3984 
Q 2250 4219 1831 4219 
Q 1534 4219 1204 4116 
Q 875 4013 500 3803 
L 500 4441 
Q 881 4594 1212 4672 
Q 1544 4750 1819 4750 
Q 2544 4750 2975 4387 
Q 3406 4025 3406 3419 
Q 3406 3131 3298 2873 
Q 3191 2616 2906 2266 
Q 2828 2175 2409 1742 
Q 1991 1309 1228 531 
z
" transform="scale(0.015625)"/>
       </defs>
       <use xlink:href="#DejaVuSans-32"/>
       <use xlink:href="#DejaVuSans-30" transform="translate(63.623047 0)"/>
       <use xlink:href="#DejaVuSans-30" transform="translate(127.246094 0)"/>
      </g>
     </g>
    </g>
    <g id="xtick_6">
     <g id="line2d_11">
      <path d="M 802.434367 214.626667 
L 802.434367 26.88 
" clip-path="url(#p5b027b4c53)" style="fill: none; stroke: #b0b0b0; stroke-opacity: 0.2; stroke-width: 0.6; stroke-linecap: square"/>
     </g>
     <g id="line2d_12">
      <g>
       <use xlink:href="#mbccc6e4f18" x="802.434367" y="214.626667" style="stroke: #000000; stroke-width: 0.8"/>
      </g>
     </g>
     <g id="text_6">
      <!-- 250 -->
      <g transform="translate(792.890617 229.225104) scale(0.1 -0.1)">
       <use xlink:href="#DejaVuSans-32"/>
       <use xlink:href="#DejaVuSans-35" transform="translate(63.623047 0)"/>
       <use xlink:href="#DejaVuSans-30" transform="translate(127.246094 0)"/>
      </g>
     </g>
    </g>
   </g>
   <g id="matplotlib.axis_2">
    <g id="ytick_1">
     <g id="line2d_13">
      <path d="M 50.96 203.226265 
L 853.2 203.226265 
" clip-path="url(#p5b027b4c53)" style="fill: none; stroke: #b0b0b0; stroke-opacity: 0.2; stroke-width: 0.6; stroke-linecap: square"/>
     </g>
     <g id="line2d_14">
      <defs>
       <path id="mf1de6eaf5d" d="M 0 0 
L -3.5 0 
" style="stroke: #000000; stroke-width: 0.8"/>
      </defs>
      <g>
       <use xlink:href="#mf1de6eaf5d" x="50.96" y="203.226265" style="stroke: #000000; stroke-width: 0.8"/>
      </g>
     </g>
     <g id="text_7">
      <!-- −3 -->
      <g transform="translate(29.217813 207.025483) scale(0.1 -0.1)">
       <defs>
        <path id="DejaVuSans-2212" d="M 678 2272 
L 4684 2272 
L 4684 1741 
L 678 1741 
L 678 2272 
z
" transform="scale(0.015625)"/>
        <path id="DejaVuSans-33" d="M 2597 2516 
Q 3050 2419 3304 2112 
Q 3559 1806 3559 1356 
Q 3559 666 3084 287 
Q 2609 -91 1734 -91 
Q 1441 -91 1130 -33 
Q 819 25 488 141 
L 488 750 
Q 750 597 1062 519 
Q 1375 441 1716 441 
Q 2309 441 2620 675 
Q 2931 909 2931 1356 
Q 2931 1769 2642 2001 
Q 2353 2234 1838 2234 
L 1294 2234 
L 1294 2753 
L 1863 2753 
Q 2328 2753 2575 2939 
Q 2822 3125 2822 3475 
Q 2822 3834 2567 4026 
Q 2313 4219 1838 4219 
Q 1578 4219 1281 4162 
Q 984 4106 628 3988 
L 628 4550 
Q 988 4650 1302 4700 
Q 1616 4750 1894 4750 
Q 2613 4750 3031 4423 
Q 3450 4097 3450 3541 
Q 3450 3153 3228 2886 
Q 3006 2619 2597 2516 
z
" transform="scale(0.015625)"/>
       </defs>
       <use xlink:href="#DejaVuSans-2212"/>
       <use xlink:href="#DejaVuSans-33" transform="translate(83.789062 0)"/>
      </g>
     </g>
    </g>
    <g id="ytick_2">
     <g id="line2d_15">
      <path d="M 50.96 174.461565 
L 853.2 174.461565 
" clip-path="url(#p5b027b4c53)" style="fill: none; stroke: #b0b0b0; stroke-opacity: 0.2; stroke-width: 0.6; stroke-linecap: square"/>
     </g>
     <g id="line2d_16">
      <g>
       <use xlink:href="#mf1de6eaf5d" x="50.96" y="174.461565" style="stroke: #000000; stroke-width: 0.8"/>
      </g>
     </g>
     <g id="text_8">
      <!-- −2 -->
      <g transform="translate(29.217813 178.260784) scale(0.1 -0.1)">
       <use xlink:href="#DejaVuSans-2212"/>
       <use xlink:href="#DejaVuSans-32" transform="translate(83.789062 0)"/>
      </g>
     </g>
    </g>
    <g id="ytick_3">
     <g id="line2d_17">
      <path d="M 50.96 145.696866 
L 853.2 145.696866 
" clip-path="url(#p5b027b4c53)" style="fill: none; stroke: #b0b0b0; stroke-opacity: 0.2; stroke-width: 0.6; stroke-linecap: square"/>
     </g>
     <g id="line2d_18">
      <g>
       <use xlink:href="#mf1de6eaf5d" x="50.96" y="145.696866" style="stroke: #000000; stroke-width: 0.8"/>
      </g>
     </g>
     <g id="text_9">
      <!-- −1 -->
      <g transform="translate(29.217813 149.496085) scale(0.1 -0.1)">
       <use xlink:href="#DejaVuSans-2212"/>
       <use xlink:href="#DejaVuSans-31" transform="translate(83.789062 0)"/>
      </g>
     </g>
    </g>
    <g id="ytick_4">
     <g id="line2d_19">
      <path d="M 50.96 116.932166 
L 853.2 116.932166 
" clip-path="url(#p5b027b4c53)" style="fill: none; stroke: #b0b0b0; stroke-opacity: 0.2; stroke-width: 0.6; stroke-linecap: square"/>
     </g>
     <g id="line2d_20">
      <g>
       <use xlink:href="#mf1de6eaf5d" x="50.96" y="116.932166" style="stroke: #000000; stroke-width: 0.8"/>
      </g>
     </g>
     <g id="text_10">
      <!-- 0 -->
      <g transform="translate(37.5975 120.731385) scale(0.1 -0.1)">
       <use xlink:href="#DejaVuSans-30"/>
      </g>
     </g>
    </g>
    <g id="ytick_5">
     <g id="line2d_21">
      <path d="M 50.96 88.167467 
L 853.2 88.167467 
" clip-path="url(#p5b027b4c53)" style="fill: none; stroke: #b0b0b0; stroke-opacity: 0.2; stroke-width: 0.6; stroke-linecap: square"/>
     </g>
     <g id="line2d_22">
      <g>
       <use xlink:href="#mf1de6eaf5d" x="50.96" y="88.167467" style="stroke: #000000; stroke-width: 0.8"/>
      </g>
     </g>
     <g id="text_11">
      <!-- 1 -->
      <g transform="translate(37.5975 91.966686) scale(0.1 -0.1)">
       <use xlink:href="#DejaVuSans-31"/>
      </g>
     </g>
    </g>
    <g id="ytick_6">
     <g id="line2d_23">
      <path d="M 50.96 59.402768 
L 853.2 59.402768 
" clip-path="url(#p5b027b4c53)" style="fill: none; stroke: #b0b0b0; stroke-opacity: 0.2; stroke-width: 0.6; stroke-linecap: square"/>
     </g>
     <g id="line2d_24">
      <g>
       <use xlink:href="#mf1de6eaf5d" x="50.96" y="59.402768" style="stroke: #000000; stroke-width: 0.8"/>
      </g>
     </g>
     <g id="text_12">
      <!-- 2 -->
      <g transform="translate(37.5975 63.201986) scale(0.1 -0.1)">
       <use xlink:href="#DejaVuSans-32"/>
      </g>
     </g>
    </g>
    <g id="ytick_7">
     <g id="line2d_25">
      <path d="M 50.96 30.638068 
L 853.2 30.638068 
" clip-path="url(#p5b027b4c53)" style="fill: none; stroke: #b0b0b0; stroke-opacity: 0.2; stroke-width: 0.6; stroke-linecap: square"/>
     </g>
     <g id="line2d_26">
      <g>
       <use xlink:href="#mf1de6eaf5d" x="50.96" y="30.638068" style="stroke: #000000; stroke-width: 0.8"/>
      </g>
     </g>
     <g id="text_13">
      <!-- 3 -->
      <g transform="translate(37.5975 34.437287) scale(0.1 -0.1)">
       <use xlink:href="#DejaVuSans-33"/>
      </g>
     </g>
    </g>
    <g id="text_14">
     <!-- Z Score -->
     <g transform="translate(23.138125 139.76974) rotate(-90) scale(0.1 -0.1)">
      <defs>
       <path id="DejaVuSans-5a" d="M 359 4666 
L 4025 4666 
L 4025 4184 
L 1075 531 
L 4097 531 
L 4097 0 
L 288 0 
L 288 481 
L 3238 4134 
L 359 4134 
L 359 4666 
z
" transform="scale(0.015625)"/>
       <path id="DejaVuSans-20" transform="scale(0.015625)"/>
       <path id="DejaVuSans-53" d="M 3425 4513 
L 3425 3897 
Q 3066 4069 2747 4153 
Q 2428 4238 2131 4238 
Q 1616 4238 1336 4038 
Q 1056 3838 1056 3469 
Q 1056 3159 1242 3001 
Q 1428 2844 1947 2747 
L 2328 2669 
Q 3034 2534 3370 2195 
Q 3706 1856 3706 1288 
Q 3706 609 3251 259 
Q 2797 -91 1919 -91 
Q 1588 -91 1214 -16 
Q 841 59 441 206 
L 441 856 
Q 825 641 1194 531 
Q 1563 422 1919 422 
Q 2459 422 2753 634 
Q 3047 847 3047 1241 
Q 3047 1584 2836 1778 
Q 2625 1972 2144 2069 
L 1759 2144 
Q 1053 2284 737 2584 
Q 422 2884 422 3419 
Q 422 4038 858 4394 
Q 1294 4750 2059 4750 
Q 2388 4750 2728 4690 
Q 3069 4631 3425 4513 
z
" transform="scale(0.015625)"/>
       <path id="DejaVuSans-63" d="M 3122 3366 
L 3122 2828 
Q 2878 2963 2633 3030 
Q 2388 3097 2138 3097 
Q 1578 3097 1268 2742 
Q 959 2388 959 1747 
Q 959 1106 1268 751 
Q 1578 397 2138 397 
Q 2388 397 2633 464 
Q 2878 531 3122 666 
L 3122 134 
Q 2881 22 2623 -34 
Q 2366 -91 2075 -91 
Q 1284 -91 818 406 
Q 353 903 353 1747 
Q 353 2603 823 3093 
Q 1294 3584 2113 3584 
Q 2378 3584 2631 3529 
Q 2884 3475 3122 3366 
z
" transform="scale(0.015625)"/>
       <path id="DejaVuSans-6f" d="M 1959 3097 
Q 1497 3097 1228 2736 
Q 959 2375 959 1747 
Q 959 1119 1226 758 
Q 1494 397 1959 397 
Q 2419 397 2687 759 
Q 2956 1122 2956 1747 
Q 2956 2369 2687 2733 
Q 2419 3097 1959 3097 
z
M 1959 3584 
Q 2709 3584 3137 3096 
Q 3566 2609 3566 1747 
Q 3566 888 3137 398 
Q 2709 -91 1959 -91 
Q 1206 -91 779 398 
Q 353 888 353 1747 
Q 353 2609 779 3096 
Q 1206 3584 1959 3584 
z
" transform="scale(0.015625)"/>
       <path id="DejaVuSans-72" d="M 2631 2963 
Q 2534 3019 2420 3045 
Q 2306 3072 2169 3072 
Q 1681 3072 1420 2755 
Q 1159 2438 1159 1844 
L 1159 0 
L 581 0 
L 581 3500 
L 1159 3500 
L 1159 2956 
Q 1341 3275 1631 3429 
Q 1922 3584 2338 3584 
Q 2397 3584 2469 3576 
Q 2541 3569 2628 3553 
L 2631 2963 
z
" transform="scale(0.015625)"/>
       <path id="DejaVuSans-65" d="M 3597 1894 
L 3597 1613 
L 953 1613 
Q 991 1019 1311 708 
Q 1631 397 2203 397 
Q 2534 397 2845 478 
Q 3156 559 3463 722 
L 3463 178 
Q 3153 47 2828 -22 
Q 2503 -91 2169 -91 
Q 1331 -91 842 396 
Q 353 884 353 1716 
Q 353 2575 817 3079 
Q 1281 3584 2069 3584 
Q 2775 3584 3186 3129 
Q 3597 2675 3597 1894 
z
M 3022 2063 
Q 3016 2534 2758 2815 
Q 2500 3097 2075 3097 
Q 1594 3097 1305 2825 
Q 1016 2553 972 2059 
L 3022 2063 
z
" transform="scale(0.015625)"/>
      </defs>
      <use xlink:href="#DejaVuSans-5a"/>
      <use xlink:href="#DejaVuSans-20" transform="translate(68.505859 0)"/>
      <use xlink:href="#DejaVuSans-53" transform="translate(100.292969 0)"/>
      <use xlink:href="#DejaVuSans-63" transform="translate(163.769531 0)"/>
      <use xlink:href="#DejaVuSans-6f" transform="translate(218.75 0)"/>
      <use xlink:href="#DejaVuSans-72" transform="translate(279.931641 0)"/>
      <use xlink:href="#DejaVuSans-65" transform="translate(318.794922 0)"/>
     </g>
    </g>
   </g>
   <g id="line2d_27">
    <path d="M 87.425455 144.954057 
L 90.28549 122.027056 
L 93.145526 137.311723 
L 96.005561 132.216834 
L 98.865597 63.43583 
L 101.725633 114.384722 
L 104.585668 147.501502 
L 107.445704 132.216834 
L 110.30574 129.669389 
L 113.165775 91.45772 
L 116.025811 88.910276 
L 118.885847 127.121945 
L 121.745882 63.43583 
L 124.605918 119.479611 
L 127.465954 111.837277 
L 130.325989 116.932166 
L 133.186025 43.056273 
L 136.046061 94.005165 
L 138.906096 150.048946 
L 141.766132 127.121945 
L 144.626168 142.406612 
L 147.486203 114.384722 
L 150.346239 114.384722 
L 153.206275 129.669389 
L 156.06631 124.5745 
L 158.926346 91.45772 
L 161.786381 73.625608 
L 164.646417 96.55261 
L 167.506453 94.005165 
L 170.366488 58.340941 
L 173.226524 104.194943 
L 176.08656 88.910276 
L 178.946595 150.048946 
L 181.806631 106.742388 
L 184.666667 124.5745 
L 187.526702 78.720498 
L 190.386738 129.669389 
L 193.246774 147.501502 
L 196.106809 183.165726 
L 198.966845 132.216834 
L 201.826881 144.954057 
L 204.686916 144.954057 
L 207.546952 96.55261 
L 210.406988 96.55261 
L 213.267023 83.815387 
L 216.127059 106.742388 
L 218.987094 96.55261 
L 221.84713 119.479611 
L 224.707166 152.596391 
L 227.567201 101.647499 
L 230.427237 99.100054 
L 233.287273 124.5745 
L 236.147308 129.669389 
L 239.007344 96.55261 
L 241.86738 60.888385 
L 244.727415 142.406612 
L 247.587451 132.216834 
L 250.447487 160.238725 
L 253.307522 122.027056 
L 256.167558 122.027056 
L 259.027594 94.005165 
L 261.887629 134.764279 
L 264.747665 144.954057 
L 267.607701 68.530719 
L 270.467736 78.720498 
L 273.327772 111.837277 
L 276.187807 104.194943 
L 279.047843 106.742388 
L 281.907879 99.100054 
L 284.767914 106.742388 
L 287.62795 111.837277 
L 290.487986 175.523392 
L 293.348021 111.837277 
L 296.208057 119.479611 
L 299.068093 122.027056 
L 301.928128 152.596391 
L 304.788164 99.100054 
L 307.6482 162.786169 
L 310.508235 83.815387 
L 313.368271 124.5745 
L 316.228307 147.501502 
L 319.088342 78.720498 
L 321.948378 99.100054 
L 324.808414 175.523392 
L 327.668449 127.121945 
L 330.528485 94.005165 
L 333.38852 139.859168 
L 336.248556 147.501502 
L 339.108592 203.545283 
L 341.968627 111.837277 
L 344.828663 104.194943 
L 347.688699 139.859168 
L 350.548734 99.100054 
L 353.40877 129.669389 
L 356.268806 111.837277 
L 359.128841 124.5745 
L 361.988877 124.5745 
L 364.848913 60.888385 
L 367.708948 142.406612 
L 370.568984 129.669389 
L 373.42902 60.888385 
L 376.289055 99.100054 
L 379.149091 134.764279 
L 382.009127 111.837277 
L 384.869162 94.005165 
L 387.729198 137.311723 
L 390.589234 124.5745 
L 393.449269 122.027056 
L 396.309305 129.669389 
L 399.16934 78.720498 
L 402.029376 129.669389 
L 404.889412 124.5745 
L 407.749447 81.267942 
L 410.609483 132.216834 
L 413.469519 134.764279 
L 416.329554 73.625608 
L 419.18959 99.100054 
L 422.049626 142.406612 
L 424.909661 104.194943 
L 427.769697 86.362831 
L 430.629733 134.764279 
L 433.489768 88.910276 
L 436.349804 150.048946 
L 439.20984 129.669389 
L 442.069875 114.384722 
L 444.929911 139.859168 
L 447.789947 83.815387 
L 450.649982 147.501502 
L 453.510018 91.45772 
L 456.370053 106.742388 
L 459.230089 155.143835 
L 462.090125 142.406612 
L 464.95016 94.005165 
L 467.810196 114.384722 
L 470.670232 124.5745 
L 473.530267 160.238725 
L 476.390303 35.413939 
L 479.250339 132.216834 
L 482.110374 96.55261 
L 484.97041 68.530719 
L 487.830446 122.027056 
L 490.690481 116.932166 
L 493.550517 134.764279 
L 496.410553 150.048946 
L 499.270588 122.027056 
L 502.130624 142.406612 
L 504.99066 88.910276 
L 507.850695 104.194943 
L 510.710731 144.954057 
L 513.570766 91.45772 
L 516.430802 111.837277 
L 519.290838 129.669389 
L 522.150873 83.815387 
L 525.010909 147.501502 
L 527.870945 134.764279 
L 530.73098 94.005165 
L 533.591016 137.311723 
L 536.451052 91.45772 
L 539.311087 119.479611 
L 542.171123 127.121945 
L 545.031159 101.647499 
L 547.891194 137.311723 
L 550.75123 137.311723 
L 553.611266 144.954057 
L 556.471301 101.647499 
L 559.331337 83.815387 
L 562.191373 114.384722 
L 565.051408 122.027056 
L 567.911444 127.121945 
L 570.77148 106.742388 
L 573.631515 132.216834 
L 576.491551 96.55261 
L 579.351586 99.100054 
L 582.211622 144.954057 
L 585.071658 137.311723 
L 587.931693 101.647499 
L 590.791729 129.669389 
L 593.651765 116.932166 
L 596.5118 114.384722 
L 599.371836 119.479611 
L 602.231872 63.43583 
L 605.091907 132.216834 
L 607.951943 152.596391 
L 610.811979 119.479611 
L 613.672014 139.859168 
L 616.53205 150.048946 
L 619.392086 83.815387 
L 622.252121 43.056273 
L 625.112157 157.69128 
L 627.972193 91.45772 
L 630.832228 122.027056 
L 633.692264 124.5745 
L 636.552299 172.975948 
L 639.412335 116.932166 
L 642.272371 114.384722 
L 645.132406 86.362831 
L 647.992442 137.311723 
L 650.852478 91.45772 
L 656.572549 132.216834 
L 659.432585 137.311723 
L 662.29262 175.523392 
L 665.152656 114.384722 
L 668.012692 76.173053 
L 670.872727 152.596391 
L 673.732763 78.720498 
L 676.592799 183.165726 
L 679.452834 68.530719 
L 682.31287 122.027056 
L 685.172906 200.997838 
L 688.032941 127.121945 
L 690.892977 81.267942 
L 693.753012 96.55261 
L 696.613048 91.45772 
L 699.473084 127.121945 
L 702.333119 106.742388 
L 705.193155 132.216834 
L 708.053191 76.173053 
L 710.913226 172.975948 
L 713.773262 178.070837 
L 716.633298 180.618281 
L 719.493333 124.5745 
L 722.353369 48.151162 
L 725.213405 114.384722 
L 728.07344 132.216834 
L 730.933476 144.954057 
L 733.793512 172.975948 
L 736.653547 104.194943 
L 739.513583 78.720498 
L 742.373619 109.289833 
L 745.233654 152.596391 
L 748.09369 86.362831 
L 750.953725 142.406612 
L 753.813761 124.5745 
L 756.673797 60.888385 
L 759.533832 114.384722 
L 762.393868 91.45772 
L 765.253904 134.764279 
L 768.113939 127.121945 
L 770.973975 165.333614 
L 773.834011 76.173053 
L 776.694046 106.742388 
L 779.554082 114.384722 
L 782.414118 60.888385 
L 785.274153 106.742388 
L 788.134189 142.406612 
L 790.994225 147.501502 
L 793.85426 88.910276 
L 796.714296 94.005165 
L 799.574332 81.267942 
L 802.434367 139.859168 
L 805.294403 114.384722 
L 808.154439 94.005165 
L 811.014474 124.5745 
L 816.734545 114.384722 
L 816.734545 114.384722 
" clip-path="url(#p5b027b4c53)" style="fill: none; stroke: #0b7285; stroke-width: 1.5; stroke-linecap: square"/>
   </g>
   <g id="line2d_28">
    <path d="M 87.425455 116.932166 
L 90.28549 116.932166 
L 93.145526 101.647499 
L 96.005561 134.764279 
L 98.865597 101.647499 
L 101.725633 142.406612 
L 104.585668 99.100054 
L 107.445704 139.859168 
L 110.30574 68.530719 
L 113.165775 137.311723 
L 116.025811 99.100054 
L 118.885847 96.55261 
L 121.745882 124.5745 
L 124.605918 99.100054 
L 127.465954 155.143835 
L 130.325989 111.837277 
L 133.186025 144.954057 
L 136.046061 150.048946 
L 138.906096 119.479611 
L 141.766132 104.194943 
L 144.626168 152.596391 
L 147.486203 109.289833 
L 150.346239 86.362831 
L 153.206275 99.100054 
L 156.06631 45.603718 
L 158.926346 137.311723 
L 161.786381 127.121945 
L 164.646417 86.362831 
L 167.506453 165.333614 
L 170.366488 119.479611 
L 173.226524 116.932166 
L 176.08656 73.625608 
L 178.946595 132.216834 
L 181.806631 139.859168 
L 184.666667 116.932166 
L 187.526702 132.216834 
L 190.386738 129.669389 
L 193.246774 88.910276 
L 196.106809 111.837277 
L 198.966845 165.333614 
L 201.826881 132.216834 
L 204.686916 88.910276 
L 207.546952 142.406612 
L 210.406988 104.194943 
L 213.267023 78.720498 
L 216.127059 167.881058 
L 218.987094 124.5745 
L 221.84713 91.45772 
L 224.707166 88.910276 
L 227.567201 114.384722 
L 230.427237 94.005165 
L 233.287273 88.910276 
L 236.147308 68.530719 
L 239.007344 122.027056 
L 241.86738 144.954057 
L 244.727415 109.289833 
L 247.587451 150.048946 
L 250.447487 160.238725 
L 253.307522 63.43583 
L 256.167558 63.43583 
L 259.027594 175.523392 
L 261.887629 144.954057 
L 264.747665 152.596391 
L 267.607701 106.742388 
L 270.467736 172.975948 
L 273.327772 127.121945 
L 276.187807 99.100054 
L 279.047843 83.815387 
L 281.907879 124.5745 
L 284.767914 127.121945 
L 287.62795 68.530719 
L 290.487986 134.764279 
L 293.348021 162.786169 
L 296.208057 180.618281 
L 299.068093 122.027056 
L 301.928128 35.413939 
L 304.788164 178.070837 
L 307.6482 58.340941 
L 310.508235 183.165726 
L 313.368271 76.173053 
L 316.228307 129.669389 
L 319.088342 170.428503 
L 321.948378 139.859168 
L 324.808414 114.384722 
L 327.668449 99.100054 
L 330.528485 71.078164 
L 333.38852 94.005165 
L 336.248556 99.100054 
L 339.108592 122.027056 
L 341.968627 83.815387 
L 344.828663 206.092727 
L 347.688699 147.501502 
L 350.548734 147.501502 
L 353.40877 122.027056 
L 356.268806 68.530719 
L 359.128841 119.479611 
L 361.988877 139.859168 
L 364.848913 109.289833 
L 367.708948 167.881058 
L 370.568984 119.479611 
L 373.42902 137.311723 
L 376.289055 142.406612 
L 379.149091 175.523392 
L 382.009127 88.910276 
L 384.869162 134.764279 
L 387.729198 157.69128 
L 390.589234 50.698607 
L 393.449269 83.815387 
L 396.309305 65.983275 
L 399.16934 127.121945 
L 402.029376 127.121945 
L 404.889412 122.027056 
L 407.749447 73.625608 
L 410.609483 114.384722 
L 413.469519 86.362831 
L 416.329554 122.027056 
L 419.18959 150.048946 
L 422.049626 111.837277 
L 424.909661 137.311723 
L 427.769697 127.121945 
L 430.629733 129.669389 
L 433.489768 83.815387 
L 436.349804 116.932166 
L 439.20984 109.289833 
L 442.069875 124.5745 
L 444.929911 109.289833 
L 447.789947 114.384722 
L 450.649982 104.194943 
L 453.510018 142.406612 
L 456.370053 129.669389 
L 459.230089 104.194943 
L 462.090125 162.786169 
L 464.95016 68.530719 
L 467.810196 104.194943 
L 470.670232 155.143835 
L 473.530267 132.216834 
L 476.390303 152.596391 
L 479.250339 127.121945 
L 482.110374 94.005165 
L 484.97041 122.027056 
L 487.830446 109.289833 
L 490.690481 132.216834 
L 493.550517 116.932166 
L 496.410553 119.479611 
L 499.270588 71.078164 
L 502.130624 73.625608 
L 504.99066 144.954057 
L 507.850695 101.647499 
L 510.710731 132.216834 
L 513.570766 122.027056 
L 516.430802 119.479611 
L 519.290838 134.764279 
L 522.150873 91.45772 
L 525.010909 94.005165 
L 527.870945 83.815387 
L 530.73098 129.669389 
L 533.591016 83.815387 
L 536.451052 55.793496 
L 539.311087 114.384722 
L 542.171123 86.362831 
L 545.031159 160.238725 
L 547.891194 60.888385 
L 550.75123 91.45772 
L 553.611266 73.625608 
L 556.471301 132.216834 
L 559.331337 111.837277 
L 562.191373 96.55261 
L 565.051408 76.173053 
L 567.911444 127.121945 
L 570.77148 119.479611 
L 573.631515 101.647499 
L 576.491551 109.289833 
L 579.351586 91.45772 
L 582.211622 129.669389 
L 585.071658 122.027056 
L 587.931693 111.837277 
L 590.791729 172.975948 
L 593.651765 139.859168 
L 596.5118 127.121945 
L 599.371836 124.5745 
L 602.231872 147.501502 
L 605.091907 106.742388 
L 607.951943 58.340941 
L 610.811979 99.100054 
L 613.672014 152.596391 
L 616.53205 124.5745 
L 619.392086 137.311723 
L 622.252121 119.479611 
L 625.112157 96.55261 
L 627.972193 109.289833 
L 633.692264 94.005165 
L 636.552299 76.173053 
L 639.412335 134.764279 
L 642.272371 96.55261 
L 645.132406 106.742388 
L 647.992442 81.267942 
L 650.852478 124.5745 
L 653.712513 94.005165 
L 656.572549 132.216834 
L 659.432585 91.45772 
L 662.29262 106.742388 
L 665.152656 73.625608 
L 668.012692 147.501502 
L 670.872727 137.311723 
L 673.732763 114.384722 
L 676.592799 83.815387 
L 679.452834 109.289833 
L 682.31287 132.216834 
L 685.172906 68.530719 
L 688.032941 99.100054 
L 690.892977 172.975948 
L 693.753012 150.048946 
L 696.613048 111.837277 
L 699.473084 116.932166 
L 702.333119 139.859168 
L 705.193155 200.997838 
L 708.053191 91.45772 
L 710.913226 134.764279 
L 713.773262 122.027056 
L 716.633298 91.45772 
L 719.493333 160.238725 
L 722.353369 88.910276 
L 725.213405 109.289833 
L 728.07344 96.55261 
L 730.933476 91.45772 
L 733.793512 132.216834 
L 736.653547 106.742388 
L 739.513583 86.362831 
L 742.373619 119.479611 
L 745.233654 160.238725 
L 748.09369 111.837277 
L 750.953725 104.194943 
L 753.813761 114.384722 
L 756.673797 162.786169 
L 759.533832 132.216834 
L 762.393868 119.479611 
L 765.253904 86.362831 
L 768.113939 142.406612 
L 770.973975 106.742388 
L 773.834011 96.55261 
L 776.694046 162.786169 
L 779.554082 147.501502 
L 782.414118 99.100054 
L 785.274153 119.479611 
L 788.134189 165.333614 
L 790.994225 106.742388 
L 793.85426 132.216834 
L 796.714296 129.669389 
L 799.574332 96.55261 
L 802.434367 129.669389 
L 805.294403 137.311723 
L 808.154439 106.742388 
L 811.014474 109.289833 
L 813.87451 99.100054 
L 816.734545 170.428503 
L 816.734545 170.428503 
" clip-path="url(#p5b027b4c53)" style="fill: none; stroke: #c92a2a; stroke-width: 1.5; stroke-linecap: square"/>
   </g>
   <g id="line2d_29">
    <path d="M 50.96 116.932166 
L 853.2 116.932166 
" clip-path="url(#p5b027b4c53)" style="fill: none; stroke: #495057; stroke-opacity: 0.7; stroke-width: 0.9; stroke-linecap: square"/>
   </g>
   <g id="line2d_30">
    <path d="M 87.425455 214.626667 
L 87.425455 26.88 
" clip-path="url(#p5b027b4c53)" style="fill: none; stroke-dasharray: 5.55,2.4; stroke-dashoffset: 0; stroke: #0b7285; stroke-opacity: 0.6; stroke-width: 1.5"/>
   </g>
   <g id="line2d_31">
    <path d="M 453.510018 214.626667 
L 453.510018 26.88 
" clip-path="url(#p5b027b4c53)" style="fill: none; stroke-dasharray: 5.55,2.4; stroke-dashoffset: 0; stroke: #c92a2a; stroke-opacity: 0.6; stroke-width: 1.5"/>
   </g>
   <g id="patch_3">
    <path d="M 50.96 214.626667 
L 50.96 26.88 
" style="fill: none; stroke: #000000; stroke-width: 0.8; stroke-linejoin: miter; stroke-linecap: square"/>
   </g>
   <g id="patch_4">
    <path d="M 853.2 214.626667 
L 853.2 26.88 
" style="fill: none; stroke: #000000; stroke-width: 0.8; stroke-linejoin: miter; stroke-linecap: square"/>
   </g>
   <g id="patch_5">
    <path d="M 50.96 214.626667 
L 853.2 214.626667 
" style="fill: none; stroke: #000000; stroke-width: 0.8; stroke-linejoin: miter; stroke-linecap: square"/>
   </g>
   <g id="patch_6">
    <path d="M 50.96 26.88 
L 853.2 26.88 
" style="fill: none; stroke: #000000; stroke-width: 0.8; stroke-linejoin: miter; stroke-linecap: square"/>
   </g>
   <g id="text_15">
    <!-- Raw Argmin Position Z-Scores -->
    <g transform="translate(362.697813 20.88) scale(0.12 -0.12)">
     <defs>
      <path id="DejaVuSans-52" d="M 2841 2188 
Q 3044 2119 3236 1894 
Q 3428 1669 3622 1275 
L 4263 0 
L 3584 0 
L 2988 1197 
Q 2756 1666 2539 1819 
Q 2322 1972 1947 1972 
L 1259 1972 
L 1259 0 
L 628 0 
L 628 4666 
L 2053 4666 
Q 2853 4666 3247 4331 
Q 3641 3997 3641 3322 
Q 3641 2881 3436 2590 
Q 3231 2300 2841 2188 
z
M 1259 4147 
L 1259 2491 
L 2053 2491 
Q 2509 2491 2742 2702 
Q 2975 2913 2975 3322 
Q 2975 3731 2742 3939 
Q 2509 4147 2053 4147 
L 1259 4147 
z
" transform="scale(0.015625)"/>
      <path id="DejaVuSans-61" d="M 2194 1759 
Q 1497 1759 1228 1600 
Q 959 1441 959 1056 
Q 959 750 1161 570 
Q 1363 391 1709 391 
Q 2188 391 2477 730 
Q 2766 1069 2766 1631 
L 2766 1759 
L 2194 1759 
z
M 3341 1997 
L 3341 0 
L 2766 0 
L 2766 531 
Q 2569 213 2275 61 
Q 1981 -91 1556 -91 
Q 1019 -91 701 211 
Q 384 513 384 1019 
Q 384 1609 779 1909 
Q 1175 2209 1959 2209 
L 2766 2209 
L 2766 2266 
Q 2766 2663 2505 2880 
Q 2244 3097 1772 3097 
Q 1472 3097 1187 3025 
Q 903 2953 641 2809 
L 641 3341 
Q 956 3463 1253 3523 
Q 1550 3584 1831 3584 
Q 2591 3584 2966 3190 
Q 3341 2797 3341 1997 
z
" transform="scale(0.015625)"/>
      <path id="DejaVuSans-77" d="M 269 3500 
L 844 3500 
L 1563 769 
L 2278 3500 
L 2956 3500 
L 3675 769 
L 4391 3500 
L 4966 3500 
L 4050 0 
L 3372 0 
L 2619 2869 
L 1863 0 
L 1184 0 
L 269 3500 
z
" transform="scale(0.015625)"/>
      <path id="DejaVuSans-41" d="M 2188 4044 
L 1331 1722 
L 3047 1722 
L 2188 4044 
z
M 1831 4666 
L 2547 4666 
L 4325 0 
L 3669 0 
L 3244 1197 
L 1141 1197 
L 716 0 
L 50 0 
L 1831 4666 
z
" transform="scale(0.015625)"/>
      <path id="DejaVuSans-67" d="M 2906 1791 
Q 2906 2416 2648 2759 
Q 2391 3103 1925 3103 
Q 1463 3103 1205 2759 
Q 947 2416 947 1791 
Q 947 1169 1205 825 
Q 1463 481 1925 481 
Q 2391 481 2648 825 
Q 2906 1169 2906 1791 
z
M 3481 434 
Q 3481 -459 3084 -895 
Q 2688 -1331 1869 -1331 
Q 1566 -1331 1297 -1286 
Q 1028 -1241 775 -1147 
L 775 -588 
Q 1028 -725 1275 -790 
Q 1522 -856 1778 -856 
Q 2344 -856 2625 -561 
Q 2906 -266 2906 331 
L 2906 616 
Q 2728 306 2450 153 
Q 2172 0 1784 0 
Q 1141 0 747 490 
Q 353 981 353 1791 
Q 353 2603 747 3093 
Q 1141 3584 1784 3584 
Q 2172 3584 2450 3431 
Q 2728 3278 2906 2969 
L 2906 3500 
L 3481 3500 
L 3481 434 
z
" transform="scale(0.015625)"/>
      <path id="DejaVuSans-6d" d="M 3328 2828 
Q 3544 3216 3844 3400 
Q 4144 3584 4550 3584 
Q 5097 3584 5394 3201 
Q 5691 2819 5691 2113 
L 5691 0 
L 5113 0 
L 5113 2094 
Q 5113 2597 4934 2840 
Q 4756 3084 4391 3084 
Q 3944 3084 3684 2787 
Q 3425 2491 3425 1978 
L 3425 0 
L 2847 0 
L 2847 2094 
Q 2847 2600 2669 2842 
Q 2491 3084 2119 3084 
Q 1678 3084 1418 2786 
Q 1159 2488 1159 1978 
L 1159 0 
L 581 0 
L 581 3500 
L 1159 3500 
L 1159 2956 
Q 1356 3278 1631 3431 
Q 1906 3584 2284 3584 
Q 2666 3584 2933 3390 
Q 3200 3197 3328 2828 
z
" transform="scale(0.015625)"/>
      <path id="DejaVuSans-69" d="M 603 3500 
L 1178 3500 
L 1178 0 
L 603 0 
L 603 3500 
z
M 603 4863 
L 1178 4863 
L 1178 4134 
L 603 4134 
L 603 4863 
z
" transform="scale(0.015625)"/>
      <path id="DejaVuSans-6e" d="M 3513 2113 
L 3513 0 
L 2938 0 
L 2938 2094 
Q 2938 2591 2744 2837 
Q 2550 3084 2163 3084 
Q 1697 3084 1428 2787 
Q 1159 2491 1159 1978 
L 1159 0 
L 581 0 
L 581 3500 
L 1159 3500 
L 1159 2956 
Q 1366 3272 1645 3428 
Q 1925 3584 2291 3584 
Q 2894 3584 3203 3211 
Q 3513 2838 3513 2113 
z
" transform="scale(0.015625)"/>
      <path id="DejaVuSans-50" d="M 1259 4147 
L 1259 2394 
L 2053 2394 
Q 2494 2394 2734 2622 
Q 2975 2850 2975 3272 
Q 2975 3691 2734 3919 
Q 2494 4147 2053 4147 
L 1259 4147 
z
M 628 4666 
L 2053 4666 
Q 2838 4666 3239 4311 
Q 3641 3956 3641 3272 
Q 3641 2581 3239 2228 
Q 2838 1875 2053 1875 
L 1259 1875 
L 1259 0 
L 628 0 
L 628 4666 
z
" transform="scale(0.015625)"/>
      <path id="DejaVuSans-73" d="M 2834 3397 
L 2834 2853 
Q 2591 2978 2328 3040 
Q 2066 3103 1784 3103 
Q 1356 3103 1142 2972 
Q 928 2841 928 2578 
Q 928 2378 1081 2264 
Q 1234 2150 1697 2047 
L 1894 2003 
Q 2506 1872 2764 1633 
Q 3022 1394 3022 966 
Q 3022 478 2636 193 
Q 2250 -91 1575 -91 
Q 1294 -91 989 -36 
Q 684 19 347 128 
L 347 722 
Q 666 556 975 473 
Q 1284 391 1588 391 
Q 1994 391 2212 530 
Q 2431 669 2431 922 
Q 2431 1156 2273 1281 
Q 2116 1406 1581 1522 
L 1381 1569 
Q 847 1681 609 1914 
Q 372 2147 372 2553 
Q 372 3047 722 3315 
Q 1072 3584 1716 3584 
Q 2034 3584 2315 3537 
Q 2597 3491 2834 3397 
z
" transform="scale(0.015625)"/>
      <path id="DejaVuSans-74" d="M 1172 4494 
L 1172 3500 
L 2356 3500 
L 2356 3053 
L 1172 3053 
L 1172 1153 
Q 1172 725 1289 603 
Q 1406 481 1766 481 
L 2356 481 
L 2356 0 
L 1766 0 
Q 1100 0 847 248 
Q 594 497 594 1153 
L 594 3053 
L 172 3053 
L 172 3500 
L 594 3500 
L 594 4494 
L 1172 4494 
z
" transform="scale(0.015625)"/>
      <path id="DejaVuSans-2d" d="M 313 2009 
L 1997 2009 
L 1997 1497 
L 313 1497 
L 313 2009 
z
" transform="scale(0.015625)"/>
     </defs>
     <use xlink:href="#DejaVuSans-52"/>
     <use xlink:href="#DejaVuSans-61" transform="translate(67.232422 0)"/>
     <use xlink:href="#DejaVuSans-77" transform="translate(128.511719 0)"/>
     <use xlink:href="#DejaVuSans-20" transform="translate(210.298828 0)"/>
     <use xlink:href="#DejaVuSans-41" transform="translate(242.085938 0)"/>
     <use xlink:href="#DejaVuSans-72" transform="translate(310.494141 0)"/>
     <use xlink:href="#DejaVuSans-67" transform="translate(349.857422 0)"/>
     <use xlink:href="#DejaVuSans-6d" transform="translate(413.333984 0)"/>
     <use xlink:href="#DejaVuSans-69" transform="translate(510.746094 0)"/>
     <use xlink:href="#DejaVuSans-6e" transform="translate(538.529297 0)"/>
     <use xlink:href="#DejaVuSans-20" transform="translate(601.908203 0)"/>
     <use xlink:href="#DejaVuSans-50" transform="translate(633.695312 0)"/>
     <use xlink:href="#DejaVuSans-6f" transform="translate(690.373047 0)"/>
     <use xlink:href="#DejaVuSans-73" transform="translate(751.554688 0)"/>
     <use xlink:href="#DejaVuSans-69" transform="translate(803.654297 0)"/>
     <use xlink:href="#DejaVuSans-74" transform="translate(831.4375 0)"/>
     <use xlink:href="#DejaVuSans-69" transform="translate(870.646484 0)"/>
     <use xlink:href="#DejaVuSans-6f" transform="translate(898.429688 0)"/>
     <use xlink:href="#DejaVuSans-6e" transform="translate(959.611328 0)"/>
     <use xlink:href="#DejaVuSans-20" transform="translate(1022.990234 0)"/>
     <use xlink:href="#DejaVuSans-5a" transform="translate(1054.777344 0)"/>
     <use xlink:href="#DejaVuSans-2d" transform="translate(1121.533203 0)"/>
     <use xlink:href="#DejaVuSans-53" transform="translate(1157.617188 0)"/>
     <use xlink:href="#DejaVuSans-63" transform="translate(1221.09375 0)"/>
     <use xlink:href="#DejaVuSans-6f" transform="translate(1276.074219 0)"/>
     <use xlink:href="#DejaVuSans-72" transform="translate(1337.255859 0)"/>
     <use xlink:href="#DejaVuSans-65" transform="translate(1376.119141 0)"/>
     <use xlink:href="#DejaVuSans-73" transform="translate(1437.642578 0)"/>
    </g>
   </g>
   <g id="legend_1">
    <g id="patch_7">
     <path d="M 756.34375 64.514375 
L 846.2 64.514375 
Q 848.2 64.514375 848.2 62.514375 
L 848.2 33.88 
Q 848.2 31.88 846.2 31.88 
L 756.34375 31.88 
Q 754.34375 31.88 754.34375 33.88 
L 754.34375 62.514375 
Q 754.34375 64.514375 756.34375 64.514375 
z
" style="fill: #ffffff; opacity: 0.8; stroke: #cccccc; stroke-linejoin: miter"/>
    </g>
    <g id="line2d_32">
     <path d="M 758.34375 39.978438 
L 768.34375 39.978438 
L 778.34375 39.978438 
" style="fill: none; stroke: #0b7285; stroke-width: 1.5; stroke-linecap: square"/>
    </g>
    <g id="text_16">
     <!-- aligned -->
     <g transform="translate(786.34375 43.478438) scale(0.1 -0.1)">
      <defs>
       <path id="DejaVuSans-6c" d="M 603 4863 
L 1178 4863 
L 1178 0 
L 603 0 
L 603 4863 
z
" transform="scale(0.015625)"/>
       <path id="DejaVuSans-64" d="M 2906 2969 
L 2906 4863 
L 3481 4863 
L 3481 0 
L 2906 0 
L 2906 525 
Q 2725 213 2448 61 
Q 2172 -91 1784 -91 
Q 1150 -91 751 415 
Q 353 922 353 1747 
Q 353 2572 751 3078 
Q 1150 3584 1784 3584 
Q 2172 3584 2448 3432 
Q 2725 3281 2906 2969 
z
M 947 1747 
Q 947 1113 1208 752 
Q 1469 391 1925 391 
Q 2381 391 2643 752 
Q 2906 1113 2906 1747 
Q 2906 2381 2643 2742 
Q 2381 3103 1925 3103 
Q 1469 3103 1208 2742 
Q 947 2381 947 1747 
z
" transform="scale(0.015625)"/>
      </defs>
      <use xlink:href="#DejaVuSans-61"/>
      <use xlink:href="#DejaVuSans-6c" transform="translate(61.279297 0)"/>
      <use xlink:href="#DejaVuSans-69" transform="translate(89.0625 0)"/>
      <use xlink:href="#DejaVuSans-67" transform="translate(116.845703 0)"/>
      <use xlink:href="#DejaVuSans-6e" transform="translate(180.322266 0)"/>
      <use xlink:href="#DejaVuSans-65" transform="translate(243.701172 0)"/>
      <use xlink:href="#DejaVuSans-64" transform="translate(305.224609 0)"/>
     </g>
    </g>
    <g id="line2d_33">
     <path d="M 758.34375 54.656563 
L 768.34375 54.656563 
L 778.34375 54.656563 
" style="fill: none; stroke: #c92a2a; stroke-width: 1.5; stroke-linecap: square"/>
    </g>
    <g id="text_17">
     <!-- half_shifted -->
     <g transform="translate(786.34375 58.156563) scale(0.1 -0.1)">
      <defs>
       <path id="DejaVuSans-68" d="M 3513 2113 
L 3513 0 
L 2938 0 
L 2938 2094 
Q 2938 2591 2744 2837 
Q 2550 3084 2163 3084 
Q 1697 3084 1428 2787 
Q 1159 2491 1159 1978 
L 1159 0 
L 581 0 
L 581 4863 
L 1159 4863 
L 1159 2956 
Q 1366 3272 1645 3428 
Q 1925 3584 2291 3584 
Q 2894 3584 3203 3211 
Q 3513 2838 3513 2113 
z
" transform="scale(0.015625)"/>
       <path id="DejaVuSans-66" d="M 2375 4863 
L 2375 4384 
L 1825 4384 
Q 1516 4384 1395 4259 
Q 1275 4134 1275 3809 
L 1275 3500 
L 2222 3500 
L 2222 3053 
L 1275 3053 
L 1275 0 
L 697 0 
L 697 3053 
L 147 3053 
L 147 3500 
L 697 3500 
L 697 3744 
Q 697 4328 969 4595 
Q 1241 4863 1831 4863 
L 2375 4863 
z
" transform="scale(0.015625)"/>
       <path id="DejaVuSans-5f" d="M 3263 -1063 
L 3263 -1509 
L -63 -1509 
L -63 -1063 
L 3263 -1063 
z
" transform="scale(0.015625)"/>
      </defs>
      <use xlink:href="#DejaVuSans-68"/>
      <use xlink:href="#DejaVuSans-61" transform="translate(63.378906 0)"/>
      <use xlink:href="#DejaVuSans-6c" transform="translate(124.658203 0)"/>
      <use xlink:href="#DejaVuSans-66" transform="translate(152.441406 0)"/>
      <use xlink:href="#DejaVuSans-5f" transform="translate(187.646484 0)"/>
      <use xlink:href="#DejaVuSans-73" transform="translate(237.646484 0)"/>
      <use xlink:href="#DejaVuSans-68" transform="translate(289.746094 0)"/>
      <use xlink:href="#DejaVuSans-69" transform="translate(353.125 0)"/>
      <use xlink:href="#DejaVuSans-66" transform="translate(380.908203 0)"/>
      <use xlink:href="#DejaVuSans-74" transform="translate(414.363281 0)"/>
      <use xlink:href="#DejaVuSans-65" transform="translate(453.572266 0)"/>
      <use xlink:href="#DejaVuSans-64" transform="translate(515.095703 0)"/>
     </g>
    </g>
   </g>
  </g>
  <g id="axes_2">
   <g id="patch_8">
    <path d="M 50.96 446.333333 
L 853.2 446.333333 
L 853.2 258.586667 
L 50.96 258.586667 
z
" style="fill: #ffffff"/>
   </g>
   <g id="matplotlib.axis_3">
    <g id="xtick_7">
     <g id="line2d_34">
      <path d="M 87.425455 446.333333 
L 87.425455 258.586667 
" clip-path="url(#p705756183c)" style="fill: none; stroke: #b0b0b0; stroke-opacity: 0.2; stroke-width: 0.6; stroke-linecap: square"/>
     </g>
     <g id="line2d_35">
      <g>
       <use xlink:href="#mbccc6e4f18" x="87.425455" y="446.333333" style="stroke: #000000; stroke-width: 0.8"/>
      </g>
     </g>
     <g id="text_18">
      <!-- 0 -->
      <g transform="translate(84.244205 460.931771) scale(0.1 -0.1)">
       <use xlink:href="#DejaVuSans-30"/>
      </g>
     </g>
    </g>
    <g id="xtick_8">
     <g id="line2d_36">
      <path d="M 230.427237 446.333333 
L 230.427237 258.586667 
" clip-path="url(#p705756183c)" style="fill: none; stroke: #b0b0b0; stroke-opacity: 0.2; stroke-width: 0.6; stroke-linecap: square"/>
     </g>
     <g id="line2d_37">
      <g>
       <use xlink:href="#mbccc6e4f18" x="230.427237" y="446.333333" style="stroke: #000000; stroke-width: 0.8"/>
      </g>
     </g>
     <g id="text_19">
      <!-- 50 -->
      <g transform="translate(224.064737 460.931771) scale(0.1 -0.1)">
       <use xlink:href="#DejaVuSans-35"/>
       <use xlink:href="#DejaVuSans-30" transform="translate(63.623047 0)"/>
      </g>
     </g>
    </g>
    <g id="xtick_9">
     <g id="line2d_38">
      <path d="M 373.42902 446.333333 
L 373.42902 258.586667 
" clip-path="url(#p705756183c)" style="fill: none; stroke: #b0b0b0; stroke-opacity: 0.2; stroke-width: 0.6; stroke-linecap: square"/>
     </g>
     <g id="line2d_39">
      <g>
       <use xlink:href="#mbccc6e4f18" x="373.42902" y="446.333333" style="stroke: #000000; stroke-width: 0.8"/>
      </g>
     </g>
     <g id="text_20">
      <!-- 100 -->
      <g transform="translate(363.88527 460.931771) scale(0.1 -0.1)">
       <use xlink:href="#DejaVuSans-31"/>
       <use xlink:href="#DejaVuSans-30" transform="translate(63.623047 0)"/>
       <use xlink:href="#DejaVuSans-30" transform="translate(127.246094 0)"/>
      </g>
     </g>
    </g>
    <g id="xtick_10">
     <g id="line2d_40">
      <path d="M 516.430802 446.333333 
L 516.430802 258.586667 
" clip-path="url(#p705756183c)" style="fill: none; stroke: #b0b0b0; stroke-opacity: 0.2; stroke-width: 0.6; stroke-linecap: square"/>
     </g>
     <g id="line2d_41">
      <g>
       <use xlink:href="#mbccc6e4f18" x="516.430802" y="446.333333" style="stroke: #000000; stroke-width: 0.8"/>
      </g>
     </g>
     <g id="text_21">
      <!-- 150 -->
      <g transform="translate(506.887052 460.931771) scale(0.1 -0.1)">
       <use xlink:href="#DejaVuSans-31"/>
       <use xlink:href="#DejaVuSans-35" transform="translate(63.623047 0)"/>
       <use xlink:href="#DejaVuSans-30" transform="translate(127.246094 0)"/>
      </g>
     </g>
    </g>
    <g id="xtick_11">
     <g id="line2d_42">
      <path d="M 659.432585 446.333333 
L 659.432585 258.586667 
" clip-path="url(#p705756183c)" style="fill: none; stroke: #b0b0b0; stroke-opacity: 0.2; stroke-width: 0.6; stroke-linecap: square"/>
     </g>
     <g id="line2d_43">
      <g>
       <use xlink:href="#mbccc6e4f18" x="659.432585" y="446.333333" style="stroke: #000000; stroke-width: 0.8"/>
      </g>
     </g>
     <g id="text_22">
      <!-- 200 -->
      <g transform="translate(649.888835 460.931771) scale(0.1 -0.1)">
       <use xlink:href="#DejaVuSans-32"/>
       <use xlink:href="#DejaVuSans-30" transform="translate(63.623047 0)"/>
       <use xlink:href="#DejaVuSans-30" transform="translate(127.246094 0)"/>
      </g>
     </g>
    </g>
    <g id="xtick_12">
     <g id="line2d_44">
      <path d="M 802.434367 446.333333 
L 802.434367 258.586667 
" clip-path="url(#p705756183c)" style="fill: none; stroke: #b0b0b0; stroke-opacity: 0.2; stroke-width: 0.6; stroke-linecap: square"/>
     </g>
     <g id="line2d_45">
      <g>
       <use xlink:href="#mbccc6e4f18" x="802.434367" y="446.333333" style="stroke: #000000; stroke-width: 0.8"/>
      </g>
     </g>
     <g id="text_23">
      <!-- 250 -->
      <g transform="translate(792.890617 460.931771) scale(0.1 -0.1)">
       <use xlink:href="#DejaVuSans-32"/>
       <use xlink:href="#DejaVuSans-35" transform="translate(63.623047 0)"/>
       <use xlink:href="#DejaVuSans-30" transform="translate(127.246094 0)"/>
      </g>
     </g>
    </g>
   </g>
   <g id="matplotlib.axis_4">
    <g id="ytick_8">
     <g id="line2d_46">
      <path d="M 50.96 434.932931 
L 853.2 434.932931 
" clip-path="url(#p705756183c)" style="fill: none; stroke: #b0b0b0; stroke-opacity: 0.2; stroke-width: 0.6; stroke-linecap: square"/>
     </g>
     <g id="line2d_47">
      <g>
       <use xlink:href="#mf1de6eaf5d" x="50.96" y="434.932931" style="stroke: #000000; stroke-width: 0.8"/>
      </g>
     </g>
     <g id="text_24">
      <!-- −3 -->
      <g transform="translate(29.217813 438.73215) scale(0.1 -0.1)">
       <use xlink:href="#DejaVuSans-2212"/>
       <use xlink:href="#DejaVuSans-33" transform="translate(83.789062 0)"/>
      </g>
     </g>
    </g>
    <g id="ytick_9">
     <g id="line2d_48">
      <path d="M 50.96 406.168232 
L 853.2 406.168232 
" clip-path="url(#p705756183c)" style="fill: none; stroke: #b0b0b0; stroke-opacity: 0.2; stroke-width: 0.6; stroke-linecap: square"/>
     </g>
     <g id="line2d_49">
      <g>
       <use xlink:href="#mf1de6eaf5d" x="50.96" y="406.168232" style="stroke: #000000; stroke-width: 0.8"/>
      </g>
     </g>
     <g id="text_25">
      <!-- −2 -->
      <g transform="translate(29.217813 409.967451) scale(0.1 -0.1)">
       <use xlink:href="#DejaVuSans-2212"/>
       <use xlink:href="#DejaVuSans-32" transform="translate(83.789062 0)"/>
      </g>
     </g>
    </g>
    <g id="ytick_10">
     <g id="line2d_50">
      <path d="M 50.96 377.403532 
L 853.2 377.403532 
" clip-path="url(#p705756183c)" style="fill: none; stroke: #b0b0b0; stroke-opacity: 0.2; stroke-width: 0.6; stroke-linecap: square"/>
     </g>
     <g id="line2d_51">
      <g>
       <use xlink:href="#mf1de6eaf5d" x="50.96" y="377.403532" style="stroke: #000000; stroke-width: 0.8"/>
      </g>
     </g>
     <g id="text_26">
      <!-- −1 -->
      <g transform="translate(29.217813 381.202751) scale(0.1 -0.1)">
       <use xlink:href="#DejaVuSans-2212"/>
       <use xlink:href="#DejaVuSans-31" transform="translate(83.789062 0)"/>
      </g>
     </g>
    </g>
    <g id="ytick_11">
     <g id="line2d_52">
      <path d="M 50.96 348.638833 
L 853.2 348.638833 
" clip-path="url(#p705756183c)" style="fill: none; stroke: #b0b0b0; stroke-opacity: 0.2; stroke-width: 0.6; stroke-linecap: square"/>
     </g>
     <g id="line2d_53">
      <g>
       <use xlink:href="#mf1de6eaf5d" x="50.96" y="348.638833" style="stroke: #000000; stroke-width: 0.8"/>
      </g>
     </g>
     <g id="text_27">
      <!-- 0 -->
      <g transform="translate(37.5975 352.438052) scale(0.1 -0.1)">
       <use xlink:href="#DejaVuSans-30"/>
      </g>
     </g>
    </g>
    <g id="ytick_12">
     <g id="line2d_54">
      <path d="M 50.96 319.874134 
L 853.2 319.874134 
" clip-path="url(#p705756183c)" style="fill: none; stroke: #b0b0b0; stroke-opacity: 0.2; stroke-width: 0.6; stroke-linecap: square"/>
     </g>
     <g id="line2d_55">
      <g>
       <use xlink:href="#mf1de6eaf5d" x="50.96" y="319.874134" style="stroke: #000000; stroke-width: 0.8"/>
      </g>
     </g>
     <g id="text_28">
      <!-- 1 -->
      <g transform="translate(37.5975 323.673352) scale(0.1 -0.1)">
       <use xlink:href="#DejaVuSans-31"/>
      </g>
     </g>
    </g>
    <g id="ytick_13">
     <g id="line2d_56">
      <path d="M 50.96 291.109434 
L 853.2 291.109434 
" clip-path="url(#p705756183c)" style="fill: none; stroke: #b0b0b0; stroke-opacity: 0.2; stroke-width: 0.6; stroke-linecap: square"/>
     </g>
     <g id="line2d_57">
      <g>
       <use xlink:href="#mf1de6eaf5d" x="50.96" y="291.109434" style="stroke: #000000; stroke-width: 0.8"/>
      </g>
     </g>
     <g id="text_29">
      <!-- 2 -->
      <g transform="translate(37.5975 294.908653) scale(0.1 -0.1)">
       <use xlink:href="#DejaVuSans-32"/>
      </g>
     </g>
    </g>
    <g id="ytick_14">
     <g id="line2d_58">
      <path d="M 50.96 262.344735 
L 853.2 262.344735 
" clip-path="url(#p705756183c)" style="fill: none; stroke: #b0b0b0; stroke-opacity: 0.2; stroke-width: 0.6; stroke-linecap: square"/>
     </g>
     <g id="line2d_59">
      <g>
       <use xlink:href="#mf1de6eaf5d" x="50.96" y="262.344735" style="stroke: #000000; stroke-width: 0.8"/>
      </g>
     </g>
     <g id="text_30">
      <!-- 3 -->
      <g transform="translate(37.5975 266.143954) scale(0.1 -0.1)">
       <use xlink:href="#DejaVuSans-33"/>
      </g>
     </g>
    </g>
    <g id="text_31">
     <!-- Z Score -->
     <g transform="translate(23.138125 371.476406) rotate(-90) scale(0.1 -0.1)">
      <use xlink:href="#DejaVuSans-5a"/>
      <use xlink:href="#DejaVuSans-20" transform="translate(68.505859 0)"/>
      <use xlink:href="#DejaVuSans-53" transform="translate(100.292969 0)"/>
      <use xlink:href="#DejaVuSans-63" transform="translate(163.769531 0)"/>
      <use xlink:href="#DejaVuSans-6f" transform="translate(218.75 0)"/>
      <use xlink:href="#DejaVuSans-72" transform="translate(279.931641 0)"/>
      <use xlink:href="#DejaVuSans-65" transform="translate(318.794922 0)"/>
     </g>
    </g>
   </g>
   <g id="line2d_60">
    <path d="M 87.425455 376.660724 
L 90.28549 353.733722 
L 93.145526 369.01839 
L 96.005561 363.923501 
L 98.865597 295.142497 
L 101.725633 346.091389 
L 104.585668 379.208168 
L 107.445704 363.923501 
L 110.30574 361.376056 
L 113.165775 323.164387 
L 116.025811 320.616943 
L 118.885847 358.828611 
L 121.745882 295.142497 
L 124.605918 351.186278 
L 127.465954 343.543944 
L 130.325989 348.638833 
L 133.186025 274.76294 
L 136.046061 325.711832 
L 138.906096 381.755613 
L 141.766132 358.828611 
L 144.626168 374.113279 
L 147.486203 346.091389 
L 150.346239 346.091389 
L 153.206275 361.376056 
L 156.06631 356.281167 
L 158.926346 323.164387 
L 161.786381 305.332275 
L 164.646417 328.259276 
L 167.506453 325.711832 
L 170.366488 290.047607 
L 173.226524 335.90161 
L 176.08656 320.616943 
L 178.946595 381.755613 
L 181.806631 338.449055 
L 184.666667 356.281167 
L 187.526702 310.427164 
L 190.386738 361.376056 
L 193.246774 379.208168 
L 196.106809 414.872393 
L 198.966845 363.923501 
L 201.826881 376.660724 
L 204.686916 376.660724 
L 207.546952 328.259276 
L 210.406988 328.259276 
L 213.267023 315.522053 
L 216.127059 338.449055 
L 218.987094 328.259276 
L 221.84713 351.186278 
L 224.707166 384.303057 
L 227.567201 333.354166 
L 230.427237 330.806721 
L 233.287273 356.281167 
L 236.147308 361.376056 
L 239.007344 328.259276 
L 241.86738 292.595052 
L 244.727415 374.113279 
L 247.587451 363.923501 
L 250.447487 391.945391 
L 253.307522 353.733722 
L 256.167558 353.733722 
L 259.027594 325.711832 
L 261.887629 366.470945 
L 264.747665 376.660724 
L 267.607701 300.237386 
L 270.467736 310.427164 
L 273.327772 343.543944 
L 276.187807 335.90161 
L 279.047843 338.449055 
L 281.907879 330.806721 
L 284.767914 338.449055 
L 287.62795 343.543944 
L 290.487986 407.230059 
L 293.348021 343.543944 
L 296.208057 351.186278 
L 299.068093 353.733722 
L 301.928128 384.303057 
L 304.788164 330.806721 
L 307.6482 394.492836 
L 310.508235 315.522053 
L 313.368271 356.281167 
L 316.228307 379.208168 
L 319.088342 310.427164 
L 321.948378 330.806721 
L 324.808414 407.230059 
L 327.668449 358.828611 
L 330.528485 325.711832 
L 333.38852 371.565834 
L 336.248556 379.208168 
L 339.108592 435.251949 
L 341.968627 343.543944 
L 344.828663 335.90161 
L 347.688699 371.565834 
L 350.548734 330.806721 
L 353.40877 361.376056 
L 356.268806 343.543944 
L 359.128841 356.281167 
L 361.988877 356.281167 
L 364.848913 292.595052 
L 367.708948 374.113279 
L 370.568984 361.376056 
L 373.42902 292.595052 
L 376.289055 330.806721 
L 379.149091 366.470945 
L 382.009127 343.543944 
L 384.869162 325.711832 
L 387.729198 369.01839 
L 390.589234 356.281167 
L 393.449269 353.733722 
L 396.309305 361.376056 
L 399.16934 310.427164 
L 402.029376 361.376056 
L 404.889412 356.281167 
L 407.749447 312.974609 
L 410.609483 363.923501 
L 413.469519 366.470945 
L 416.329554 305.332275 
L 419.18959 330.806721 
L 422.049626 374.113279 
L 424.909661 335.90161 
L 427.769697 318.069498 
L 430.629733 366.470945 
L 433.489768 320.616943 
L 436.349804 381.755613 
L 439.20984 361.376056 
L 442.069875 346.091389 
L 444.929911 371.565834 
L 447.789947 315.522053 
L 450.649982 379.208168 
L 453.510018 323.164387 
L 456.370053 338.449055 
L 459.230089 386.850502 
L 462.090125 374.113279 
L 464.95016 325.711832 
L 467.810196 346.091389 
L 470.670232 356.281167 
L 473.530267 391.945391 
L 476.390303 267.120606 
L 479.250339 363.923501 
L 482.110374 328.259276 
L 484.97041 300.237386 
L 487.830446 353.733722 
L 490.690481 348.638833 
L 493.550517 366.470945 
L 496.410553 381.755613 
L 499.270588 353.733722 
L 502.130624 374.113279 
L 504.99066 320.616943 
L 507.850695 335.90161 
L 510.710731 376.660724 
L 513.570766 323.164387 
L 516.430802 343.543944 
L 519.290838 361.376056 
L 522.150873 315.522053 
L 525.010909 379.208168 
L 527.870945 366.470945 
L 530.73098 325.711832 
L 533.591016 369.01839 
L 536.451052 323.164387 
L 539.311087 351.186278 
L 542.171123 358.828611 
L 545.031159 333.354166 
L 547.891194 369.01839 
L 550.75123 369.01839 
L 553.611266 376.660724 
L 556.471301 333.354166 
L 559.331337 315.522053 
L 562.191373 346.091389 
L 565.051408 353.733722 
L 567.911444 358.828611 
L 570.77148 338.449055 
L 573.631515 363.923501 
L 576.491551 328.259276 
L 579.351586 330.806721 
L 582.211622 376.660724 
L 585.071658 369.01839 
L 587.931693 333.354166 
L 590.791729 361.376056 
L 593.651765 348.638833 
L 596.5118 346.091389 
L 599.371836 351.186278 
L 602.231872 295.142497 
L 605.091907 363.923501 
L 607.951943 384.303057 
L 610.811979 351.186278 
L 613.672014 371.565834 
L 616.53205 381.755613 
L 619.392086 315.522053 
L 622.252121 274.76294 
L 625.112157 389.397947 
L 627.972193 323.164387 
L 630.832228 353.733722 
L 633.692264 356.281167 
L 636.552299 404.682614 
L 639.412335 348.638833 
L 642.272371 346.091389 
L 645.132406 318.069498 
L 647.992442 369.01839 
L 650.852478 323.164387 
L 656.572549 363.923501 
L 659.432585 369.01839 
L 662.29262 407.230059 
L 665.152656 346.091389 
L 668.012692 307.87972 
L 670.872727 384.303057 
L 673.732763 310.427164 
L 676.592799 414.872393 
L 679.452834 300.237386 
L 682.31287 353.733722 
L 685.172906 432.704505 
L 688.032941 358.828611 
L 690.892977 312.974609 
L 693.753012 328.259276 
L 696.613048 323.164387 
L 699.473084 358.828611 
L 702.333119 338.449055 
L 705.193155 363.923501 
L 708.053191 307.87972 
L 710.913226 404.682614 
L 713.773262 409.777503 
L 716.633298 412.324948 
L 719.493333 356.281167 
L 722.353369 279.857829 
L 725.213405 346.091389 
L 728.07344 363.923501 
L 730.933476 376.660724 
L 733.793512 404.682614 
L 736.653547 335.90161 
L 739.513583 310.427164 
L 742.373619 340.996499 
L 745.233654 384.303057 
L 748.09369 318.069498 
L 750.953725 374.113279 
L 753.813761 356.281167 
L 756.673797 292.595052 
L 759.533832 346.091389 
L 762.393868 323.164387 
L 765.253904 366.470945 
L 768.113939 358.828611 
L 770.973975 397.04028 
L 773.834011 307.87972 
L 776.694046 338.449055 
L 779.554082 346.091389 
L 782.414118 292.595052 
L 785.274153 338.449055 
L 788.134189 374.113279 
L 790.994225 379.208168 
L 793.85426 320.616943 
L 796.714296 325.711832 
L 799.574332 312.974609 
L 802.434367 371.565834 
L 805.294403 346.091389 
L 808.154439 325.711832 
L 811.014474 356.281167 
L 816.734545 346.091389 
L 816.734545 346.091389 
" clip-path="url(#p705756183c)" style="fill: none; stroke: #0b7285; stroke-width: 1.5; stroke-linecap: square"/>
   </g>
   <g id="line2d_61">
    <path d="M 87.425455 374.113279 
L 90.28549 361.376056 
L 93.145526 335.90161 
L 96.005561 394.492836 
L 98.865597 300.237386 
L 101.725633 335.90161 
L 104.585668 386.850502 
L 107.445704 363.923501 
L 110.30574 384.303057 
L 113.165775 358.828611 
L 116.025811 325.711832 
L 118.885847 353.733722 
L 121.745882 340.996499 
L 124.605918 363.923501 
L 127.465954 348.638833 
L 130.325989 351.186278 
L 133.186025 302.78483 
L 136.046061 305.332275 
L 138.906096 376.660724 
L 141.766132 333.354166 
L 144.626168 363.923501 
L 147.486203 353.733722 
L 150.346239 351.186278 
L 153.206275 366.470945 
L 156.06631 323.164387 
L 158.926346 325.711832 
L 161.786381 315.522053 
L 164.646417 361.376056 
L 167.506453 315.522053 
L 170.366488 287.500163 
L 173.226524 346.091389 
L 176.08656 318.069498 
L 178.946595 391.945391 
L 181.806631 292.595052 
L 184.666667 323.164387 
L 187.526702 305.332275 
L 190.386738 363.923501 
L 193.246774 343.543944 
L 196.106809 328.259276 
L 198.966845 307.87972 
L 201.826881 358.828611 
L 204.686916 351.186278 
L 207.546952 333.354166 
L 210.406988 340.996499 
L 213.267023 323.164387 
L 216.127059 361.376056 
L 218.987094 353.733722 
L 221.84713 343.543944 
L 224.707166 404.682614 
L 227.567201 371.565834 
L 230.427237 358.828611 
L 233.287273 356.281167 
L 236.147308 379.208168 
L 239.007344 338.449055 
L 241.86738 290.047607 
L 244.727415 330.806721 
L 247.587451 384.303057 
L 250.447487 356.281167 
L 253.307522 369.01839 
L 256.167558 351.186278 
L 259.027594 328.259276 
L 261.887629 340.996499 
L 267.607701 325.711832 
L 270.467736 307.87972 
L 273.327772 366.470945 
L 276.187807 328.259276 
L 279.047843 338.449055 
L 281.907879 312.974609 
L 284.767914 356.281167 
L 287.62795 325.711832 
L 290.487986 363.923501 
L 293.348021 323.164387 
L 296.208057 338.449055 
L 299.068093 305.332275 
L 301.928128 379.208168 
L 304.788164 369.01839 
L 307.6482 346.091389 
L 310.508235 315.522053 
L 313.368271 340.996499 
L 316.228307 363.923501 
L 319.088342 300.237386 
L 321.948378 330.806721 
L 324.808414 404.682614 
L 327.668449 381.755613 
L 330.528485 343.543944 
L 333.38852 348.638833 
L 336.248556 371.565834 
L 339.108592 432.704505 
L 341.968627 323.164387 
L 344.828663 366.470945 
L 347.688699 353.733722 
L 350.548734 323.164387 
L 353.40877 391.945391 
L 356.268806 320.616943 
L 359.128841 340.996499 
L 361.988877 328.259276 
L 364.848913 323.164387 
L 367.708948 363.923501 
L 370.568984 338.449055 
L 373.42902 318.069498 
L 376.289055 351.186278 
L 379.149091 391.945391 
L 382.009127 343.543944 
L 384.869162 335.90161 
L 387.729198 346.091389 
L 390.589234 394.492836 
L 393.449269 363.923501 
L 396.309305 351.186278 
L 399.16934 318.069498 
L 402.029376 374.113279 
L 404.889412 338.449055 
L 407.749447 328.259276 
L 410.609483 394.492836 
L 413.469519 379.208168 
L 416.329554 330.806721 
L 419.18959 351.186278 
L 422.049626 397.04028 
L 424.909661 338.449055 
L 427.769697 363.923501 
L 430.629733 361.376056 
L 433.489768 328.259276 
L 436.349804 361.376056 
L 439.20984 369.01839 
L 442.069875 338.449055 
L 444.929911 340.996499 
L 447.789947 330.806721 
L 450.649982 402.13517 
L 453.510018 348.638833 
L 456.370053 348.638833 
L 459.230089 333.354166 
L 462.090125 366.470945 
L 464.95016 333.354166 
L 467.810196 374.113279 
L 470.670232 330.806721 
L 473.530267 371.565834 
L 476.390303 300.237386 
L 479.250339 369.01839 
L 482.110374 330.806721 
L 484.97041 328.259276 
L 487.830446 356.281167 
L 490.690481 330.806721 
L 493.550517 386.850502 
L 496.410553 343.543944 
L 499.270588 376.660724 
L 502.130624 381.755613 
L 504.99066 351.186278 
L 507.850695 335.90161 
L 510.710731 384.303057 
L 513.570766 340.996499 
L 516.430802 318.069498 
L 519.290838 330.806721 
L 522.150873 277.310384 
L 525.010909 369.01839 
L 527.870945 358.828611 
L 530.73098 318.069498 
L 533.591016 397.04028 
L 536.451052 351.186278 
L 539.311087 348.638833 
L 542.171123 305.332275 
L 545.031159 363.923501 
L 547.891194 371.565834 
L 550.75123 348.638833 
L 553.611266 363.923501 
L 556.471301 361.376056 
L 559.331337 320.616943 
L 562.191373 343.543944 
L 565.051408 397.04028 
L 567.911444 363.923501 
L 570.77148 320.616943 
L 573.631515 374.113279 
L 576.491551 335.90161 
L 579.351586 310.427164 
L 582.211622 399.587725 
L 585.071658 356.281167 
L 587.931693 323.164387 
L 590.791729 320.616943 
L 593.651765 346.091389 
L 596.5118 325.711832 
L 599.371836 320.616943 
L 602.231872 300.237386 
L 605.091907 353.733722 
L 607.951943 376.660724 
L 610.811979 340.996499 
L 613.672014 381.755613 
L 616.53205 391.945391 
L 619.392086 295.142497 
L 622.252121 295.142497 
L 625.112157 407.230059 
L 627.972193 376.660724 
L 630.832228 384.303057 
L 633.692264 338.449055 
L 636.552299 404.682614 
L 639.412335 358.828611 
L 642.272371 330.806721 
L 645.132406 315.522053 
L 647.992442 356.281167 
L 650.852478 358.828611 
L 653.712513 300.237386 
L 656.572549 366.470945 
L 659.432585 394.492836 
L 662.29262 412.324948 
L 665.152656 353.733722 
L 668.012692 267.120606 
L 670.872727 409.777503 
L 673.732763 290.047607 
L 676.592799 414.872393 
L 679.452834 307.87972 
L 682.31287 361.376056 
L 685.172906 402.13517 
L 688.032941 371.565834 
L 690.892977 346.091389 
L 693.753012 330.806721 
L 696.613048 302.78483 
L 699.473084 325.711832 
L 702.333119 330.806721 
L 705.193155 353.733722 
L 708.053191 315.522053 
L 710.913226 437.799394 
L 713.773262 379.208168 
L 716.633298 379.208168 
L 719.493333 353.733722 
L 722.353369 300.237386 
L 725.213405 351.186278 
L 728.07344 371.565834 
L 730.933476 340.996499 
L 733.793512 399.587725 
L 736.653547 351.186278 
L 739.513583 369.01839 
L 742.373619 374.113279 
L 745.233654 407.230059 
L 748.09369 320.616943 
L 750.953725 366.470945 
L 753.813761 389.397947 
L 756.673797 282.405274 
L 759.533832 315.522053 
L 762.393868 297.689941 
L 765.253904 358.828611 
L 768.113939 358.828611 
L 770.973975 353.733722 
L 773.834011 305.332275 
L 776.694046 346.091389 
L 779.554082 318.069498 
L 782.414118 353.733722 
L 785.274153 381.755613 
L 788.134189 343.543944 
L 790.994225 369.01839 
L 793.85426 358.828611 
L 796.714296 361.376056 
L 799.574332 315.522053 
L 802.434367 348.638833 
L 805.294403 340.996499 
L 808.154439 356.281167 
L 811.014474 340.996499 
L 813.87451 346.091389 
L 816.734545 335.90161 
L 816.734545 335.90161 
" clip-path="url(#p705756183c)" style="fill: none; stroke: #c92a2a; stroke-width: 1.5; stroke-linecap: square"/>
   </g>
   <g id="line2d_62">
    <path d="M 50.96 348.638833 
L 853.2 348.638833 
" clip-path="url(#p705756183c)" style="fill: none; stroke: #495057; stroke-opacity: 0.7; stroke-width: 0.9; stroke-linecap: square"/>
   </g>
   <g id="line2d_63">
    <path d="M 87.425455 446.333333 
L 87.425455 258.586667 
" clip-path="url(#p705756183c)" style="fill: none; stroke-dasharray: 5.55,2.4; stroke-dashoffset: 0; stroke: #343a40; stroke-opacity: 0.6; stroke-width: 1.5"/>
   </g>
   <g id="patch_9">
    <path d="M 50.96 446.333333 
L 50.96 258.586667 
" style="fill: none; stroke: #000000; stroke-width: 0.8; stroke-linejoin: miter; stroke-linecap: square"/>
   </g>
   <g id="patch_10">
    <path d="M 853.2 446.333333 
L 853.2 258.586667 
" style="fill: none; stroke: #000000; stroke-width: 0.8; stroke-linejoin: miter; stroke-linecap: square"/>
   </g>
   <g id="patch_11">
    <path d="M 50.96 446.333333 
L 853.2 446.333333 
" style="fill: none; stroke: #000000; stroke-width: 0.8; stroke-linejoin: miter; stroke-linecap: square"/>
   </g>
   <g id="patch_12">
    <path d="M 50.96 258.586667 
L 853.2 258.586667 
" style="fill: none; stroke: #000000; stroke-width: 0.8; stroke-linejoin: miter; stroke-linecap: square"/>
   </g>
   <g id="text_32">
    <!-- Reset-Centered Argmin Position Z-Scores -->
    <g transform="translate(328.829688 252.586667) scale(0.12 -0.12)">
     <defs>
      <path id="DejaVuSans-43" d="M 4122 4306 
L 4122 3641 
Q 3803 3938 3442 4084 
Q 3081 4231 2675 4231 
Q 1875 4231 1450 3742 
Q 1025 3253 1025 2328 
Q 1025 1406 1450 917 
Q 1875 428 2675 428 
Q 3081 428 3442 575 
Q 3803 722 4122 1019 
L 4122 359 
Q 3791 134 3420 21 
Q 3050 -91 2638 -91 
Q 1578 -91 968 557 
Q 359 1206 359 2328 
Q 359 3453 968 4101 
Q 1578 4750 2638 4750 
Q 3056 4750 3426 4639 
Q 3797 4528 4122 4306 
z
" transform="scale(0.015625)"/>
     </defs>
     <use xlink:href="#DejaVuSans-52"/>
     <use xlink:href="#DejaVuSans-65" transform="translate(64.982422 0)"/>
     <use xlink:href="#DejaVuSans-73" transform="translate(126.505859 0)"/>
     <use xlink:href="#DejaVuSans-65" transform="translate(178.605469 0)"/>
     <use xlink:href="#DejaVuSans-74" transform="translate(240.128906 0)"/>
     <use xlink:href="#DejaVuSans-2d" transform="translate(279.337891 0)"/>
     <use xlink:href="#DejaVuSans-43" transform="translate(315.421875 0)"/>
     <use xlink:href="#DejaVuSans-65" transform="translate(385.246094 0)"/>
     <use xlink:href="#DejaVuSans-6e" transform="translate(446.769531 0)"/>
     <use xlink:href="#DejaVuSans-74" transform="translate(510.148438 0)"/>
     <use xlink:href="#DejaVuSans-65" transform="translate(549.357422 0)"/>
     <use xlink:href="#DejaVuSans-72" transform="translate(610.880859 0)"/>
     <use xlink:href="#DejaVuSans-65" transform="translate(649.744141 0)"/>
     <use xlink:href="#DejaVuSans-64" transform="translate(711.267578 0)"/>
     <use xlink:href="#DejaVuSans-20" transform="translate(774.744141 0)"/>
     <use xlink:href="#DejaVuSans-41" transform="translate(806.53125 0)"/>
     <use xlink:href="#DejaVuSans-72" transform="translate(874.939453 0)"/>
     <use xlink:href="#DejaVuSans-67" transform="translate(914.302734 0)"/>
     <use xlink:href="#DejaVuSans-6d" transform="translate(977.779297 0)"/>
     <use xlink:href="#DejaVuSans-69" transform="translate(1075.191406 0)"/>
     <use xlink:href="#DejaVuSans-6e" transform="translate(1102.974609 0)"/>
     <use xlink:href="#DejaVuSans-20" transform="translate(1166.353516 0)"/>
     <use xlink:href="#DejaVuSans-50" transform="translate(1198.140625 0)"/>
     <use xlink:href="#DejaVuSans-6f" transform="translate(1254.818359 0)"/>
     <use xlink:href="#DejaVuSans-73" transform="translate(1316 0)"/>
     <use xlink:href="#DejaVuSans-69" transform="translate(1368.099609 0)"/>
     <use xlink:href="#DejaVuSans-74" transform="translate(1395.882812 0)"/>
     <use xlink:href="#DejaVuSans-69" transform="translate(1435.091797 0)"/>
     <use xlink:href="#DejaVuSans-6f" transform="translate(1462.875 0)"/>
     <use xlink:href="#DejaVuSans-6e" transform="translate(1524.056641 0)"/>
     <use xlink:href="#DejaVuSans-20" transform="translate(1587.435547 0)"/>
     <use xlink:href="#DejaVuSans-5a" transform="translate(1619.222656 0)"/>
     <use xlink:href="#DejaVuSans-2d" transform="translate(1685.978516 0)"/>
     <use xlink:href="#DejaVuSans-53" transform="translate(1722.0625 0)"/>
     <use xlink:href="#DejaVuSans-63" transform="translate(1785.539062 0)"/>
     <use xlink:href="#DejaVuSans-6f" transform="translate(1840.519531 0)"/>
     <use xlink:href="#DejaVuSans-72" transform="translate(1901.701172 0)"/>
     <use xlink:href="#DejaVuSans-65" transform="translate(1940.564453 0)"/>
     <use xlink:href="#DejaVuSans-73" transform="translate(2002.087891 0)"/>
    </g>
   </g>
   <g id="legend_2">
    <g id="patch_13">
     <path d="M 756.34375 296.221042 
L 846.2 296.221042 
Q 848.2 296.221042 848.2 294.221042 
L 848.2 265.586667 
Q 848.2 263.586667 846.2 263.586667 
L 756.34375 263.586667 
Q 754.34375 263.586667 754.34375 265.586667 
L 754.34375 294.221042 
Q 754.34375 296.221042 756.34375 296.221042 
z
" style="fill: #ffffff; opacity: 0.8; stroke: #cccccc; stroke-linejoin: miter"/>
    </g>
    <g id="line2d_64">
     <path d="M 758.34375 271.685104 
L 768.34375 271.685104 
L 778.34375 271.685104 
" style="fill: none; stroke: #0b7285; stroke-width: 1.5; stroke-linecap: square"/>
    </g>
    <g id="text_33">
     <!-- aligned -->
     <g transform="translate(786.34375 275.185104) scale(0.1 -0.1)">
      <use xlink:href="#DejaVuSans-61"/>
      <use xlink:href="#DejaVuSans-6c" transform="translate(61.279297 0)"/>
      <use xlink:href="#DejaVuSans-69" transform="translate(89.0625 0)"/>
      <use xlink:href="#DejaVuSans-67" transform="translate(116.845703 0)"/>
      <use xlink:href="#DejaVuSans-6e" transform="translate(180.322266 0)"/>
      <use xlink:href="#DejaVuSans-65" transform="translate(243.701172 0)"/>
      <use xlink:href="#DejaVuSans-64" transform="translate(305.224609 0)"/>
     </g>
    </g>
    <g id="line2d_65">
     <path d="M 758.34375 286.363229 
L 768.34375 286.363229 
L 778.34375 286.363229 
" style="fill: none; stroke: #c92a2a; stroke-width: 1.5; stroke-linecap: square"/>
    </g>
    <g id="text_34">
     <!-- half_shifted -->
     <g transform="translate(786.34375 289.863229) scale(0.1 -0.1)">
      <use xlink:href="#DejaVuSans-68"/>
      <use xlink:href="#DejaVuSans-61" transform="translate(63.378906 0)"/>
      <use xlink:href="#DejaVuSans-6c" transform="translate(124.658203 0)"/>
      <use xlink:href="#DejaVuSans-66" transform="translate(152.441406 0)"/>
      <use xlink:href="#DejaVuSans-5f" transform="translate(187.646484 0)"/>
      <use xlink:href="#DejaVuSans-73" transform="translate(237.646484 0)"/>
      <use xlink:href="#DejaVuSans-68" transform="translate(289.746094 0)"/>
      <use xlink:href="#DejaVuSans-69" transform="translate(353.125 0)"/>
      <use xlink:href="#DejaVuSans-66" transform="translate(380.908203 0)"/>
      <use xlink:href="#DejaVuSans-74" transform="translate(414.363281 0)"/>
      <use xlink:href="#DejaVuSans-65" transform="translate(453.572266 0)"/>
      <use xlink:href="#DejaVuSans-64" transform="translate(515.095703 0)"/>
     </g>
    </g>
   </g>
  </g>
  <g id="axes_3">
   <g id="patch_14">
    <path d="M 50.96 678.04 
L 853.2 678.04 
L 853.2 490.293333 
L 50.96 490.293333 
z
" style="fill: #ffffff"/>
   </g>
   <g id="matplotlib.axis_5">
    <g id="xtick_13">
     <g id="line2d_66">
      <path d="M 87.425455 678.04 
L 87.425455 490.293333 
" clip-path="url(#p9a2e6c0079)" style="fill: none; stroke: #b0b0b0; stroke-opacity: 0.2; stroke-width: 0.6; stroke-linecap: square"/>
     </g>
     <g id="line2d_67">
      <g>
       <use xlink:href="#mbccc6e4f18" x="87.425455" y="678.04" style="stroke: #000000; stroke-width: 0.8"/>
      </g>
     </g>
     <g id="text_35">
      <!-- 0 -->
      <g transform="translate(84.244205 692.638437) scale(0.1 -0.1)">
       <use xlink:href="#DejaVuSans-30"/>
      </g>
     </g>
    </g>
    <g id="xtick_14">
     <g id="line2d_68">
      <path d="M 205.055953 678.04 
L 205.055953 490.293333 
" clip-path="url(#p9a2e6c0079)" style="fill: none; stroke: #b0b0b0; stroke-opacity: 0.2; stroke-width: 0.6; stroke-linecap: square"/>
     </g>
     <g id="line2d_69">
      <g>
       <use xlink:href="#mbccc6e4f18" x="205.055953" y="678.04" style="stroke: #000000; stroke-width: 0.8"/>
      </g>
     </g>
     <g id="text_36">
      <!-- 5 -->
      <g transform="translate(201.874703 692.638437) scale(0.1 -0.1)">
       <use xlink:href="#DejaVuSans-35"/>
      </g>
     </g>
    </g>
    <g id="xtick_15">
     <g id="line2d_70">
      <path d="M 322.686452 678.04 
L 322.686452 490.293333 
" clip-path="url(#p9a2e6c0079)" style="fill: none; stroke: #b0b0b0; stroke-opacity: 0.2; stroke-width: 0.6; stroke-linecap: square"/>
     </g>
     <g id="line2d_71">
      <g>
       <use xlink:href="#mbccc6e4f18" x="322.686452" y="678.04" style="stroke: #000000; stroke-width: 0.8"/>
      </g>
     </g>
     <g id="text_37">
      <!-- 10 -->
      <g transform="translate(316.323952 692.638437) scale(0.1 -0.1)">
       <use xlink:href="#DejaVuSans-31"/>
       <use xlink:href="#DejaVuSans-30" transform="translate(63.623047 0)"/>
      </g>
     </g>
    </g>
    <g id="xtick_16">
     <g id="line2d_72">
      <path d="M 440.31695 678.04 
L 440.31695 490.293333 
" clip-path="url(#p9a2e6c0079)" style="fill: none; stroke: #b0b0b0; stroke-opacity: 0.2; stroke-width: 0.6; stroke-linecap: square"/>
     </g>
     <g id="line2d_73">
      <g>
       <use xlink:href="#mbccc6e4f18" x="440.31695" y="678.04" style="stroke: #000000; stroke-width: 0.8"/>
      </g>
     </g>
     <g id="text_38">
      <!-- 15 -->
      <g transform="translate(433.95445 692.638437) scale(0.1 -0.1)">
       <use xlink:href="#DejaVuSans-31"/>
       <use xlink:href="#DejaVuSans-35" transform="translate(63.623047 0)"/>
      </g>
     </g>
    </g>
    <g id="xtick_17">
     <g id="line2d_74">
      <path d="M 557.947449 678.04 
L 557.947449 490.293333 
" clip-path="url(#p9a2e6c0079)" style="fill: none; stroke: #b0b0b0; stroke-opacity: 0.2; stroke-width: 0.6; stroke-linecap: square"/>
     </g>
     <g id="line2d_75">
      <g>
       <use xlink:href="#mbccc6e4f18" x="557.947449" y="678.04" style="stroke: #000000; stroke-width: 0.8"/>
      </g>
     </g>
     <g id="text_39">
      <!-- 20 -->
      <g transform="translate(551.584949 692.638437) scale(0.1 -0.1)">
       <use xlink:href="#DejaVuSans-32"/>
       <use xlink:href="#DejaVuSans-30" transform="translate(63.623047 0)"/>
      </g>
     </g>
    </g>
    <g id="xtick_18">
     <g id="line2d_76">
      <path d="M 675.577947 678.04 
L 675.577947 490.293333 
" clip-path="url(#p9a2e6c0079)" style="fill: none; stroke: #b0b0b0; stroke-opacity: 0.2; stroke-width: 0.6; stroke-linecap: square"/>
     </g>
     <g id="line2d_77">
      <g>
       <use xlink:href="#mbccc6e4f18" x="675.577947" y="678.04" style="stroke: #000000; stroke-width: 0.8"/>
      </g>
     </g>
     <g id="text_40">
      <!-- 25 -->
      <g transform="translate(669.215447 692.638437) scale(0.1 -0.1)">
       <use xlink:href="#DejaVuSans-32"/>
       <use xlink:href="#DejaVuSans-35" transform="translate(63.623047 0)"/>
      </g>
     </g>
    </g>
    <g id="xtick_19">
     <g id="line2d_78">
      <path d="M 793.208446 678.04 
L 793.208446 490.293333 
" clip-path="url(#p9a2e6c0079)" style="fill: none; stroke: #b0b0b0; stroke-opacity: 0.2; stroke-width: 0.6; stroke-linecap: square"/>
     </g>
     <g id="line2d_79">
      <g>
       <use xlink:href="#mbccc6e4f18" x="793.208446" y="678.04" style="stroke: #000000; stroke-width: 0.8"/>
      </g>
     </g>
     <g id="text_41">
      <!-- 30 -->
      <g transform="translate(786.845946 692.638437) scale(0.1 -0.1)">
       <use xlink:href="#DejaVuSans-33"/>
       <use xlink:href="#DejaVuSans-30" transform="translate(63.623047 0)"/>
      </g>
     </g>
    </g>
    <g id="text_42">
     <!-- Reset-Centered Offset -->
     <g transform="translate(396.655 706.316562) scale(0.1 -0.1)">
      <defs>
       <path id="DejaVuSans-4f" d="M 2522 4238 
Q 1834 4238 1429 3725 
Q 1025 3213 1025 2328 
Q 1025 1447 1429 934 
Q 1834 422 2522 422 
Q 3209 422 3611 934 
Q 4013 1447 4013 2328 
Q 4013 3213 3611 3725 
Q 3209 4238 2522 4238 
z
M 2522 4750 
Q 3503 4750 4090 4092 
Q 4678 3434 4678 2328 
Q 4678 1225 4090 567 
Q 3503 -91 2522 -91 
Q 1538 -91 948 565 
Q 359 1222 359 2328 
Q 359 3434 948 4092 
Q 1538 4750 2522 4750 
z
" transform="scale(0.015625)"/>
      </defs>
      <use xlink:href="#DejaVuSans-52"/>
      <use xlink:href="#DejaVuSans-65" transform="translate(64.982422 0)"/>
      <use xlink:href="#DejaVuSans-73" transform="translate(126.505859 0)"/>
      <use xlink:href="#DejaVuSans-65" transform="translate(178.605469 0)"/>
      <use xlink:href="#DejaVuSans-74" transform="translate(240.128906 0)"/>
      <use xlink:href="#DejaVuSans-2d" transform="translate(279.337891 0)"/>
      <use xlink:href="#DejaVuSans-43" transform="translate(315.421875 0)"/>
      <use xlink:href="#DejaVuSans-65" transform="translate(385.246094 0)"/>
      <use xlink:href="#DejaVuSans-6e" transform="translate(446.769531 0)"/>
      <use xlink:href="#DejaVuSans-74" transform="translate(510.148438 0)"/>
      <use xlink:href="#DejaVuSans-65" transform="translate(549.357422 0)"/>
      <use xlink:href="#DejaVuSans-72" transform="translate(610.880859 0)"/>
      <use xlink:href="#DejaVuSans-65" transform="translate(649.744141 0)"/>
      <use xlink:href="#DejaVuSans-64" transform="translate(711.267578 0)"/>
      <use xlink:href="#DejaVuSans-20" transform="translate(774.744141 0)"/>
      <use xlink:href="#DejaVuSans-4f" transform="translate(806.53125 0)"/>
      <use xlink:href="#DejaVuSans-66" transform="translate(885.242188 0)"/>
      <use xlink:href="#DejaVuSans-66" transform="translate(920.447266 0)"/>
      <use xlink:href="#DejaVuSans-73" transform="translate(955.652344 0)"/>
      <use xlink:href="#DejaVuSans-65" transform="translate(1007.751953 0)"/>
      <use xlink:href="#DejaVuSans-74" transform="translate(1069.275391 0)"/>
     </g>
    </g>
   </g>
   <g id="matplotlib.axis_6">
    <g id="ytick_15">
     <g id="line2d_80">
      <path d="M 50.96 669.506061 
L 853.2 669.506061 
" clip-path="url(#p9a2e6c0079)" style="fill: none; stroke: #b0b0b0; stroke-opacity: 0.2; stroke-width: 0.6; stroke-linecap: square"/>
     </g>
     <g id="line2d_81">
      <g>
       <use xlink:href="#mf1de6eaf5d" x="50.96" y="669.506061" style="stroke: #000000; stroke-width: 0.8"/>
      </g>
     </g>
     <g id="text_43">
      <!-- 110 -->
      <g transform="translate(24.8725 673.305279) scale(0.1 -0.1)">
       <use xlink:href="#DejaVuSans-31"/>
       <use xlink:href="#DejaVuSans-31" transform="translate(63.623047 0)"/>
       <use xlink:href="#DejaVuSans-30" transform="translate(127.246094 0)"/>
      </g>
     </g>
    </g>
    <g id="ytick_16">
     <g id="line2d_82">
      <path d="M 50.96 633.191425 
L 853.2 633.191425 
" clip-path="url(#p9a2e6c0079)" style="fill: none; stroke: #b0b0b0; stroke-opacity: 0.2; stroke-width: 0.6; stroke-linecap: square"/>
     </g>
     <g id="line2d_83">
      <g>
       <use xlink:href="#mf1de6eaf5d" x="50.96" y="633.191425" style="stroke: #000000; stroke-width: 0.8"/>
      </g>
     </g>
     <g id="text_44">
      <!-- 120 -->
      <g transform="translate(24.8725 636.990644) scale(0.1 -0.1)">
       <use xlink:href="#DejaVuSans-31"/>
       <use xlink:href="#DejaVuSans-32" transform="translate(63.623047 0)"/>
       <use xlink:href="#DejaVuSans-30" transform="translate(127.246094 0)"/>
      </g>
     </g>
    </g>
    <g id="ytick_17">
     <g id="line2d_84">
      <path d="M 50.96 596.876789 
L 853.2 596.876789 
" clip-path="url(#p9a2e6c0079)" style="fill: none; stroke: #b0b0b0; stroke-opacity: 0.2; stroke-width: 0.6; stroke-linecap: square"/>
     </g>
     <g id="line2d_85">
      <g>
       <use xlink:href="#mf1de6eaf5d" x="50.96" y="596.876789" style="stroke: #000000; stroke-width: 0.8"/>
      </g>
     </g>
     <g id="text_45">
      <!-- 130 -->
      <g transform="translate(24.8725 600.676008) scale(0.1 -0.1)">
       <use xlink:href="#DejaVuSans-31"/>
       <use xlink:href="#DejaVuSans-33" transform="translate(63.623047 0)"/>
       <use xlink:href="#DejaVuSans-30" transform="translate(127.246094 0)"/>
      </g>
     </g>
    </g>
    <g id="ytick_18">
     <g id="line2d_86">
      <path d="M 50.96 560.562153 
L 853.2 560.562153 
" clip-path="url(#p9a2e6c0079)" style="fill: none; stroke: #b0b0b0; stroke-opacity: 0.2; stroke-width: 0.6; stroke-linecap: square"/>
     </g>
     <g id="line2d_87">
      <g>
       <use xlink:href="#mf1de6eaf5d" x="50.96" y="560.562153" style="stroke: #000000; stroke-width: 0.8"/>
      </g>
     </g>
     <g id="text_46">
      <!-- 140 -->
      <g transform="translate(24.8725 564.361372) scale(0.1 -0.1)">
       <defs>
        <path id="DejaVuSans-34" d="M 2419 4116 
L 825 1625 
L 2419 1625 
L 2419 4116 
z
M 2253 4666 
L 3047 4666 
L 3047 1625 
L 3713 1625 
L 3713 1100 
L 3047 1100 
L 3047 0 
L 2419 0 
L 2419 1100 
L 313 1100 
L 313 1709 
L 2253 4666 
z
" transform="scale(0.015625)"/>
       </defs>
       <use xlink:href="#DejaVuSans-31"/>
       <use xlink:href="#DejaVuSans-34" transform="translate(63.623047 0)"/>
       <use xlink:href="#DejaVuSans-30" transform="translate(127.246094 0)"/>
      </g>
     </g>
    </g>
    <g id="ytick_19">
     <g id="line2d_88">
      <path d="M 50.96 524.247518 
L 853.2 524.247518 
" clip-path="url(#p9a2e6c0079)" style="fill: none; stroke: #b0b0b0; stroke-opacity: 0.2; stroke-width: 0.6; stroke-linecap: square"/>
     </g>
     <g id="line2d_89">
      <g>
       <use xlink:href="#mf1de6eaf5d" x="50.96" y="524.247518" style="stroke: #000000; stroke-width: 0.8"/>
      </g>
     </g>
     <g id="text_47">
      <!-- 150 -->
      <g transform="translate(24.8725 528.046736) scale(0.1 -0.1)">
       <use xlink:href="#DejaVuSans-31"/>
       <use xlink:href="#DejaVuSans-35" transform="translate(63.623047 0)"/>
       <use xlink:href="#DejaVuSans-30" transform="translate(127.246094 0)"/>
      </g>
     </g>
    </g>
    <g id="text_48">
     <!-- Argmin Count -->
     <g transform="translate(18.792813 618.594792) rotate(-90) scale(0.1 -0.1)">
      <defs>
       <path id="DejaVuSans-75" d="M 544 1381 
L 544 3500 
L 1119 3500 
L 1119 1403 
Q 1119 906 1312 657 
Q 1506 409 1894 409 
Q 2359 409 2629 706 
Q 2900 1003 2900 1516 
L 2900 3500 
L 3475 3500 
L 3475 0 
L 2900 0 
L 2900 538 
Q 2691 219 2414 64 
Q 2138 -91 1772 -91 
Q 1169 -91 856 284 
Q 544 659 544 1381 
z
M 1991 3584 
L 1991 3584 
z
" transform="scale(0.015625)"/>
      </defs>
      <use xlink:href="#DejaVuSans-41"/>
      <use xlink:href="#DejaVuSans-72" transform="translate(68.408203 0)"/>
      <use xlink:href="#DejaVuSans-67" transform="translate(107.771484 0)"/>
      <use xlink:href="#DejaVuSans-6d" transform="translate(171.248047 0)"/>
      <use xlink:href="#DejaVuSans-69" transform="translate(268.660156 0)"/>
      <use xlink:href="#DejaVuSans-6e" transform="translate(296.443359 0)"/>
      <use xlink:href="#DejaVuSans-20" transform="translate(359.822266 0)"/>
      <use xlink:href="#DejaVuSans-43" transform="translate(391.609375 0)"/>
      <use xlink:href="#DejaVuSans-6f" transform="translate(461.433594 0)"/>
      <use xlink:href="#DejaVuSans-75" transform="translate(522.615234 0)"/>
      <use xlink:href="#DejaVuSans-6e" transform="translate(585.994141 0)"/>
      <use xlink:href="#DejaVuSans-74" transform="translate(649.373047 0)"/>
     </g>
    </g>
   </g>
   <g id="line2d_90">
    <path d="M 87.425455 644.085816 
L 110.951554 611.402643 
L 134.477654 633.191425 
L 158.003754 625.928498 
L 181.529853 527.878981 
L 205.055953 600.508253 
L 228.582053 647.717279 
L 252.108152 625.928498 
L 275.634252 622.297034 
L 299.160352 567.825081 
L 322.686452 564.193617 
L 346.212551 618.665571 
L 369.738651 527.878981 
L 393.264751 607.77118 
L 416.79085 596.876789 
L 440.31695 604.139716 
L 463.84305 498.827273 
L 487.36915 571.456544 
L 510.895249 651.348743 
L 534.421349 618.665571 
L 557.947449 640.454352 
L 581.473548 600.508253 
L 604.999648 600.508253 
L 628.525748 622.297034 
L 652.051848 615.034107 
L 675.577947 567.825081 
L 699.104047 542.404836 
L 722.630147 575.088008 
L 746.156246 571.456544 
L 769.682346 520.616054 
L 793.208446 585.982398 
L 816.734545 564.193617 
" clip-path="url(#p9a2e6c0079)" style="fill: none; stroke: #0b7285; stroke-width: 1.5; stroke-linecap: square"/>
   </g>
   <g id="line2d_91">
    <path d="M 87.425455 640.454352 
L 110.951554 622.297034 
L 134.477654 585.982398 
L 158.003754 669.506061 
L 181.529853 535.141908 
L 205.055953 585.982398 
L 228.582053 658.61167 
L 252.108152 625.928498 
L 275.634252 654.980206 
L 299.160352 618.665571 
L 322.686452 571.456544 
L 346.212551 611.402643 
L 369.738651 593.245326 
L 393.264751 625.928498 
L 416.79085 604.139716 
L 440.31695 607.77118 
L 463.84305 538.773372 
L 487.36915 542.404836 
L 510.895249 644.085816 
L 534.421349 582.350935 
L 557.947449 625.928498 
L 581.473548 611.402643 
L 604.999648 607.77118 
L 628.525748 629.559961 
L 652.051848 567.825081 
L 675.577947 571.456544 
L 699.104047 556.93069 
L 722.630147 622.297034 
L 746.156246 556.93069 
L 769.682346 516.984591 
L 793.208446 600.508253 
L 816.734545 560.562153 
" clip-path="url(#p9a2e6c0079)" style="fill: none; stroke: #c92a2a; stroke-width: 1.5; stroke-linecap: square"/>
   </g>
   <g id="line2d_92">
    <path d="M 50.96 604.139716 
L 853.2 604.139716 
" clip-path="url(#p9a2e6c0079)" style="fill: none; stroke: #495057; stroke-opacity: 0.7; stroke-width: 0.9; stroke-linecap: square"/>
   </g>
   <g id="line2d_93">
    <path d="M 87.425455 678.04 
L 87.425455 490.293333 
" clip-path="url(#p9a2e6c0079)" style="fill: none; stroke-dasharray: 5.55,2.4; stroke-dashoffset: 0; stroke: #343a40; stroke-opacity: 0.6; stroke-width: 1.5"/>
   </g>
   <g id="patch_15">
    <path d="M 50.96 678.04 
L 50.96 490.293333 
" style="fill: none; stroke: #000000; stroke-width: 0.8; stroke-linejoin: miter; stroke-linecap: square"/>
   </g>
   <g id="patch_16">
    <path d="M 853.2 678.04 
L 853.2 490.293333 
" style="fill: none; stroke: #000000; stroke-width: 0.8; stroke-linejoin: miter; stroke-linecap: square"/>
   </g>
   <g id="patch_17">
    <path d="M 50.96 678.04 
L 853.2 678.04 
" style="fill: none; stroke: #000000; stroke-width: 0.8; stroke-linejoin: miter; stroke-linecap: square"/>
   </g>
   <g id="patch_18">
    <path d="M 50.96 490.293333 
L 853.2 490.293333 
" style="fill: none; stroke: #000000; stroke-width: 0.8; stroke-linejoin: miter; stroke-linecap: square"/>
   </g>
   <g id="text_49">
    <!-- Reset-Centered Counts, First 32 Offsets -->
    <g transform="translate(333.610938 484.293333) scale(0.12 -0.12)">
     <defs>
      <path id="DejaVuSans-2c" d="M 750 794 
L 1409 794 
L 1409 256 
L 897 -744 
L 494 -744 
L 750 256 
L 750 794 
z
" transform="scale(0.015625)"/>
      <path id="DejaVuSans-46" d="M 628 4666 
L 3309 4666 
L 3309 4134 
L 1259 4134 
L 1259 2759 
L 3109 2759 
L 3109 2228 
L 1259 2228 
L 1259 0 
L 628 0 
L 628 4666 
z
" transform="scale(0.015625)"/>
     </defs>
     <use xlink:href="#DejaVuSans-52"/>
     <use xlink:href="#DejaVuSans-65" transform="translate(64.982422 0)"/>
     <use xlink:href="#DejaVuSans-73" transform="translate(126.505859 0)"/>
     <use xlink:href="#DejaVuSans-65" transform="translate(178.605469 0)"/>
     <use xlink:href="#DejaVuSans-74" transform="translate(240.128906 0)"/>
     <use xlink:href="#DejaVuSans-2d" transform="translate(279.337891 0)"/>
     <use xlink:href="#DejaVuSans-43" transform="translate(315.421875 0)"/>
     <use xlink:href="#DejaVuSans-65" transform="translate(385.246094 0)"/>
     <use xlink:href="#DejaVuSans-6e" transform="translate(446.769531 0)"/>
     <use xlink:href="#DejaVuSans-74" transform="translate(510.148438 0)"/>
     <use xlink:href="#DejaVuSans-65" transform="translate(549.357422 0)"/>
     <use xlink:href="#DejaVuSans-72" transform="translate(610.880859 0)"/>
     <use xlink:href="#DejaVuSans-65" transform="translate(649.744141 0)"/>
     <use xlink:href="#DejaVuSans-64" transform="translate(711.267578 0)"/>
     <use xlink:href="#DejaVuSans-20" transform="translate(774.744141 0)"/>
     <use xlink:href="#DejaVuSans-43" transform="translate(806.53125 0)"/>
     <use xlink:href="#DejaVuSans-6f" transform="translate(876.355469 0)"/>
     <use xlink:href="#DejaVuSans-75" transform="translate(937.537109 0)"/>
     <use xlink:href="#DejaVuSans-6e" transform="translate(1000.916016 0)"/>
     <use xlink:href="#DejaVuSans-74" transform="translate(1064.294922 0)"/>
     <use xlink:href="#DejaVuSans-73" transform="translate(1103.503906 0)"/>
     <use xlink:href="#DejaVuSans-2c" transform="translate(1155.603516 0)"/>
     <use xlink:href="#DejaVuSans-20" transform="translate(1187.390625 0)"/>
     <use xlink:href="#DejaVuSans-46" transform="translate(1219.177734 0)"/>
     <use xlink:href="#DejaVuSans-69" transform="translate(1269.447266 0)"/>
     <use xlink:href="#DejaVuSans-72" transform="translate(1297.230469 0)"/>
     <use xlink:href="#DejaVuSans-73" transform="translate(1338.34375 0)"/>
     <use xlink:href="#DejaVuSans-74" transform="translate(1390.443359 0)"/>
     <use xlink:href="#DejaVuSans-20" transform="translate(1429.652344 0)"/>
     <use xlink:href="#DejaVuSans-33" transform="translate(1461.439453 0)"/>
     <use xlink:href="#DejaVuSans-32" transform="translate(1525.0625 0)"/>
     <use xlink:href="#DejaVuSans-20" transform="translate(1588.685547 0)"/>
     <use xlink:href="#DejaVuSans-4f" transform="translate(1620.472656 0)"/>
     <use xlink:href="#DejaVuSans-66" transform="translate(1699.183594 0)"/>
     <use xlink:href="#DejaVuSans-66" transform="translate(1734.388672 0)"/>
     <use xlink:href="#DejaVuSans-73" transform="translate(1769.59375 0)"/>
     <use xlink:href="#DejaVuSans-65" transform="translate(1821.693359 0)"/>
     <use xlink:href="#DejaVuSans-74" transform="translate(1883.216797 0)"/>
     <use xlink:href="#DejaVuSans-73" transform="translate(1922.425781 0)"/>
    </g>
   </g>
   <g id="legend_3">
    <g id="patch_19">
     <path d="M 756.34375 542.605833 
L 846.2 542.605833 
Q 848.2 542.605833 848.2 540.605833 
L 848.2 497.293333 
Q 848.2 495.293333 846.2 495.293333 
L 756.34375 495.293333 
Q 754.34375 495.293333 754.34375 497.293333 
L 754.34375 540.605833 
Q 754.34375 542.605833 756.34375 542.605833 
z
" style="fill: #ffffff; opacity: 0.8; stroke: #cccccc; stroke-linejoin: miter"/>
    </g>
    <g id="line2d_94">
     <path d="M 758.34375 503.391771 
L 768.34375 503.391771 
L 778.34375 503.391771 
" style="fill: none; stroke: #0b7285; stroke-width: 1.5; stroke-linecap: square"/>
    </g>
    <g id="text_50">
     <!-- aligned -->
     <g transform="translate(786.34375 506.891771) scale(0.1 -0.1)">
      <use xlink:href="#DejaVuSans-61"/>
      <use xlink:href="#DejaVuSans-6c" transform="translate(61.279297 0)"/>
      <use xlink:href="#DejaVuSans-69" transform="translate(89.0625 0)"/>
      <use xlink:href="#DejaVuSans-67" transform="translate(116.845703 0)"/>
      <use xlink:href="#DejaVuSans-6e" transform="translate(180.322266 0)"/>
      <use xlink:href="#DejaVuSans-65" transform="translate(243.701172 0)"/>
      <use xlink:href="#DejaVuSans-64" transform="translate(305.224609 0)"/>
     </g>
    </g>
    <g id="line2d_95">
     <path d="M 758.34375 518.069896 
L 768.34375 518.069896 
L 778.34375 518.069896 
" style="fill: none; stroke: #c92a2a; stroke-width: 1.5; stroke-linecap: square"/>
    </g>
    <g id="text_51">
     <!-- half_shifted -->
     <g transform="translate(786.34375 521.569896) scale(0.1 -0.1)">
      <use xlink:href="#DejaVuSans-68"/>
      <use xlink:href="#DejaVuSans-61" transform="translate(63.378906 0)"/>
      <use xlink:href="#DejaVuSans-6c" transform="translate(124.658203 0)"/>
      <use xlink:href="#DejaVuSans-66" transform="translate(152.441406 0)"/>
      <use xlink:href="#DejaVuSans-5f" transform="translate(187.646484 0)"/>
      <use xlink:href="#DejaVuSans-73" transform="translate(237.646484 0)"/>
      <use xlink:href="#DejaVuSans-68" transform="translate(289.746094 0)"/>
      <use xlink:href="#DejaVuSans-69" transform="translate(353.125 0)"/>
      <use xlink:href="#DejaVuSans-66" transform="translate(380.908203 0)"/>
      <use xlink:href="#DejaVuSans-74" transform="translate(414.363281 0)"/>
      <use xlink:href="#DejaVuSans-65" transform="translate(453.572266 0)"/>
      <use xlink:href="#DejaVuSans-64" transform="translate(515.095703 0)"/>
     </g>
    </g>
    <g id="line2d_96">
     <path d="M 758.34375 533.026146 
L 768.34375 533.026146 
L 778.34375 533.026146 
" style="fill: none; stroke: #495057; stroke-opacity: 0.7; stroke-width: 0.9; stroke-linecap: square"/>
    </g>
    <g id="text_52">
     <!-- null -->
     <g transform="translate(786.34375 536.526146) scale(0.1 -0.1)">
      <use xlink:href="#DejaVuSans-6e"/>
      <use xlink:href="#DejaVuSans-75" transform="translate(63.378906 0)"/>
      <use xlink:href="#DejaVuSans-6c" transform="translate(126.757812 0)"/>
      <use xlink:href="#DejaVuSans-6c" transform="translate(154.541016 0)"/>
     </g>
    </g>
   </g>
  </g>
 </g>
 <defs>
  <clipPath id="p5b027b4c53">
   <rect x="50.96" y="26.88" width="802.24" height="187.746667"/>
  </clipPath>
  <clipPath id="p705756183c">
   <rect x="50.96" y="258.586667" width="802.24" height="187.746667"/>
  </clipPath>
  <clipPath id="p9a2e6c0079">
   <rect x="50.96" y="490.293333" width="802.24" height="187.746667"/>
  </clipPath>
 </defs>
</svg>
