<?xml version="1.0" encoding="UTF-8"?>
<svg xmlns="http://www.w3.org/2000/svg" width="1200" height="900" viewBox="0 0 1200 900">
<rect width="100%" height="100%" fill="#ffffff"/>
<style>
text { font-family: -apple-system, BlinkMacSystemFont, "Segoe UI", sans-serif; fill: #1f2933; }
.title { font-size: 28px; font-weight: 700; }
.subtitle { font-size: 16px; fill: #52606d; }
.panel-title { font-size: 18px; font-weight: 600; }
.axis { stroke: #cbd2d9; stroke-width: 1; }
.tick { stroke: #9aa5b1; stroke-width: 1; }
.label { font-size: 13px; fill: #52606d; }
</style>
<text x="600" y="38" class="title" text-anchor="middle">ROTR7 / sigma0 Phase Probe</text>
<text x="600" y="62" class="subtitle" text-anchor="middle">Observed reset-centered argmin profile vs modeled k=7 phase from the nonce word</text>
<text x="90" y="54.00" class="panel-title">Observed mean reset-centered profile</text>
<line x1="90" y1="175.00" x2="1160" y2="175.00" class="axis"/>
<line x1="90" y1="70.00" x2="90" y2="280.00" class="axis"/>
<line x1="90.00" y1="70.00" x2="90.00" y2="280.00" class="tick" opacity="0.35"/>
<text x="90.00" y="302.00" class="label" text-anchor="middle">0</text>
<line x1="358.55" y1="70.00" x2="358.55" y2="280.00" class="tick" opacity="0.35"/>
<text x="358.55" y="302.00" class="label" text-anchor="middle">64</text>
<line x1="627.10" y1="70.00" x2="627.10" y2="280.00" class="tick" opacity="0.35"/>
<text x="627.10" y="302.00" class="label" text-anchor="middle">128</text>
<line x1="895.65" y1="70.00" x2="895.65" y2="280.00" class="tick" opacity="0.35"/>
<text x="895.65" y="302.00" class="label" text-anchor="middle">192</text>
<line x1="1160.00" y1="70.00" x2="1160.00" y2="280.00" class="tick" opacity="0.35"/>
<text x="1160.00" y="302.00" class="label" text-anchor="middle">255</text>
<text x="90" y="334.00" class="panel-title">Observed k=7 component</text>
<line x1="90" y1="455.00" x2="1160" y2="455.00" class="axis"/>
<line x1="90" y1="350.00" x2="90" y2="560.00" class="axis"/>
<line x1="90.00" y1="350.00" x2="90.00" y2="560.00" class="tick" opacity="0.35"/>
<text x="90.00" y="582.00" class="label" text-anchor="middle">0</text>
<line x1="358.55" y1="350.00" x2="358.55" y2="560.00" class="tick" opacity="0.35"/>
<text x="358.55" y="582.00" class="label" text-anchor="middle">64</text>
<line x1="627.10" y1="350.00" x2="627.10" y2="560.00" class="tick" opacity="0.35"/>
<text x="627.10" y="582.00" class="label" text-anchor="middle">128</text>
<line x1="895.65" y1="350.00" x2="895.65" y2="560.00" class="tick" opacity="0.35"/>
<text x="895.65" y="582.00" class="label" text-anchor="middle">192</text>
<line x1="1160.00" y1="350.00" x2="1160.00" y2="560.00" class="tick" opacity="0.35"/>
<text x="1160.00" y="582.00" class="label" text-anchor="middle">255</text>
<text x="90" y="614.00" class="panel-title">Modeled k=7 components</text>
<line x1="90" y1="735.00" x2="1160" y2="735.00" class="axis"/>
<line x1="90" y1="630.00" x2="90" y2="840.00" class="axis"/>
<line x1="90.00" y1="630.00" x2="90.00" y2="840.00" class="tick" opacity="0.35"/>
<text x="90.00" y="862.00" class="label" text-anchor="middle">0</text>
<line x1="358.55" y1="630.00" x2="358.55" y2="840.00" class="tick" opacity="0.35"/>
<text x="358.55" y="862.00" class="label" text-anchor="middle">64</text>
<line x1="627.10" y1="630.00" x2="627.10" y2="840.00" class="tick" opacity="0.35"/>
<text x="627.10" y="862.00" class="label" text-anchor="middle">128</text>
<line x1="895.65" y1="630.00" x2="895.65" y2="840.00" class="tick" opacity="0.35"/>
<text x="895.65" y="862.00" class="label" text-anchor="middle">192</text>
<line x1="1160.00" y1="630.00" x2="1160.00" y2="840.00" class="tick" opacity="0.35"/>
<text x="1160.00" y="862.00" class="label" text-anchor="middle">255</text>
<polyline fill="none" stroke="#0b7285" stroke-width="2" points="90.00,175.00 94.20,175.00 98.39,175.00 102.59,175.00 106.78,175.00 110.98,175.00 115.18,175.00 119.37,175.00 123.57,175.00 127.76,175.00 131.96,175.00 136.16,175.00 140.35,175.00 144.55,175.00 148.75,175.00 152.94,175.00 157.14,175.00 161.33,175.00 165.53,175.00 169.73,175.00 173.92,175.00 178.12,175.00 182.31,175.00 186.51,175.00 190.71,175.00 194.90,175.00 199.10,175.00 203.29,175.00 207.49,175.00 211.69,175.00 215.88,175.00 220.08,175.00 224.27,175.00 228.47,175.00 232.67,175.00 236.86,175.00 241.06,175.00 245.25,175.00 249.45,175.00 253.65,175.00 257.84,175.00 262.04,175.00 266.24,175.00 270.43,175.00 274.63,175.00 278.82,175.00 283.02,175.00 287.22,175.00 291.41,175.00 295.61,175.00 299.80,175.00 304.00,175.00 308.20,175.00 312.39,175.00 316.59,175.00 320.78,175.00 324.98,175.00 329.18,175.00 333.37,175.00 337.57,175.00 341.76,175.00 345.96,175.00 350.16,175.00 354.35,175.00 358.55,175.00 362.75,175.00 366.94,175.00 371.14,175.00 375.33,175.00 379.53,175.00 383.73,175.00 387.92,175.00 392.12,175.00 396.31,175.00 400.51,175.00 404.71,175.00 408.90,175.00 413.10,175.00 417.29,175.00 421.49,175.00 425.69,175.00 429.88,175.00 434.08,175.00 438.27,175.00 442.47,175.00 446.67,175.00 450.86,175.00 455.06,175.00 459.25,175.00 463.45,175.00 467.65,175.00 471.84,175.00 476.04,175.00 480.24,175.00 484.43,175.00 488.63,175.00 492.82,175.00 497.02,175.00 501.22,175.00 505.41,175.00 509.61,175.00 513.80,175.00 518.00,175.00 522.20,175.00 526.39,175.00 530.59,175.00 534.78,175.00 538.98,175.00 543.18,175.00 547.37,175.00 551.57,175.00 555.76,175.00 559.96,175.00 564.16,175.00 568.35,175.00 572.55,175.00 576.75,175.00 580.94,175.00 585.14,175.00 589.33,175.00 593.53,175.00 597.73,175.00 601.92,175.00 606.12,175.00 610.31,175.00 614.51,175.00 618.71,175.00 622.90,175.00 627.10,175.00 631.29,175.00 635.49,175.00 639.69,175.00 643.88,175.00 648.08,175.00 652.27,175.00 656.47,175.00 660.67,175.00 664.86,175.00 669.06,175.00 673.25,175.00 677.45,175.00 681.65,175.00 685.84,175.00 690.04,175.00 694.24,175.00 698.43,175.00 702.63,175.00 706.82,175.00 711.02,175.00 715.22,175.00 719.41,175.00 723.61,175.00 727.80,175.00 732.00,175.00 736.20,175.00 740.39,175.00 744.59,175.00 748.78,175.00 752.98,175.00 757.18,175.00 761.37,175.00 765.57,175.00 769.76,175.00 773.96,175.00 778.16,175.00 782.35,175.00 786.55,175.00 790.75,175.00 794.94,175.00 799.14,175.00 803.33,175.00 807.53,175.00 811.73,175.00 815.92,175.00 820.12,175.00 824.31,175.00 828.51,175.00 832.71,175.00 836.90,175.00 841.10,175.00 845.29,175.00 849.49,175.00 853.69,175.00 857.88,175.00 862.08,175.00 866.27,175.00 870.47,175.00 874.67,175.00 878.86,175.00 883.06,175.00 887.25,175.00 891.45,175.00 895.65,175.00 899.84,175.00 904.04,175.00 908.24,175.00 912.43,175.00 916.63,175.00 920.82,175.00 925.02,175.00 929.22,175.00 933.41,175.00 937.61,175.00 941.80,175.00 946.00,175.00 950.20,175.00 954.39,175.00 958.59,175.00 962.78,175.00 966.98,175.00 971.18,175.00 975.37,175.00 979.57,175.00 983.76,175.00 987.96,175.00 992.16,175.00 996.35,175.00 1000.55,175.00 1004.75,175.00 1008.94,175.00 1013.14,175.00 1017.33,175.00 1021.53,175.00 1025.73,175.00 1029.92,175.00 1034.12,175.00 1038.31,175.00 1042.51,175.00 1046.71,175.00 1050.90,175.00 1055.10,175.00 1059.29,175.00 1063.49,175.00 1067.69,175.00 1071.88,175.00 1076.08,175.00 1080.27,175.00 1084.47,175.00 1088.67,175.00 1092.86,175.00 1097.06,175.00 1101.25,175.00 1105.45,175.00 1109.65,175.00 1113.84,175.00 1118.04,175.00 1122.24,175.00 1126.43,175.00 1130.63,175.00 1134.82,175.00 1139.02,175.00 1143.22,175.00 1147.41,175.00 1151.61,175.00 1155.80,175.00 1160.00,175.00"/>
<polyline fill="none" stroke="#5f3dc4" stroke-width="2" points="90.00,455.00 94.20,455.00 98.39,455.00 102.59,455.00 106.78,455.00 110.98,455.00 115.18,455.00 119.37,455.00 123.57,455.00 127.76,455.00 131.96,455.00 136.16,455.00 140.35,455.00 144.55,455.00 148.75,455.00 152.94,455.00 157.14,455.00 161.33,455.00 165.53,455.00 169.73,455.00 173.92,455.00 178.12,455.00 182.31,455.00 186.51,455.00 190.71,455.00 194.90,455.00 199.10,455.00 203.29,455.00 207.49,455.00 211.69,455.00 215.88,455.00 220.08,455.00 224.27,455.00 228.47,455.00 232.67,455.00 236.86,455.00 241.06,455.00 245.25,455.00 249.45,455.00 253.65,455.00 257.84,455.00 262.04,455.00 266.24,455.00 270.43,455.00 274.63,455.00 278.82,455.00 283.02,455.00 287.22,455.00 291.41,455.00 295.61,455.00 299.80,455.00 304.00,455.00 308.20,455.00 312.39,455.00 316.59,455.00 320.78,455.00 324.98,455.00 329.18,455.00 333.37,455.00 337.57,455.00 341.76,455.00 345.96,455.00 350.16,455.00 354.35,455.00 358.55,455.00 362.75,455.00 366.94,455.00 371.14,455.00 375.33,455.00 379.53,455.00 383.73,455.00 387.92,455.00 392.12,455.00 396.31,455.00 400.51,455.00 404.71,455.00 408.90,455.00 413.10,455.00 417.29,455.00 421.49,455.00 425.69,455.00 429.88,455.00 434.08,455.00 438.27,455.00 442.47,455.00 446.67,455.00 450.86,455.00 455.06,455.00 459.25,455.00 463.45,455.00 467.65,455.00 471.84,455.00 476.04,455.00 480.24,455.00 484.43,455.00 488.63,455.00 492.82,455.00 497.02,455.00 501.22,455.00 505.41,455.00 509.61,455.00 513.80,455.00 518.00,455.00 522.20,455.00 526.39,455.00 530.59,455.00 534.78,455.00 538.98,455.00 543.18,455.00 547.37,455.00 551.57,455.00 555.76,455.00 559.96,455.00 564.16,455.00 568.35,455.00 572.55,455.00 576.75,455.00 580.94,455.00 585.14,455.00 589.33,455.00 593.53,455.00 597.73,455.00 601.92,455.00 606.12,455.00 610.31,455.00 614.51,455.00 618.71,455.00 622.90,455.00 627.10,455.00 631.29,455.00 635.49,455.00 639.69,455.00 643.88,455.00 648.08,455.00 652.27,455.00 656.47,455.00 660.67,455.00 664.86,455.00 669.06,455.00 673.25,455.00 677.45,455.00 681.65,455.00 685.84,455.00 690.04,455.00 694.24,455.00 698.43,455.00 702.63,455.00 706.82,455.00 711.02,455.00 715.22,455.00 719.41,455.00 723.61,455.00 727.80,455.00 732.00,455.00 736.20,455.00 740.39,455.00 744.59,455.00 748.78,455.00 752.98,455.00 757.18,455.00 761.37,455.00 765.57,455.00 769.76,455.00 773.96,455.00 778.16,455.00 782.35,455.00 786.55,455.00 790.75,455.00 794.94,455.00 799.14,455.00 803.33,455.00 807.53,455.00 811.73,455.00 815.92,455.00 820.12,455.00 824.31,455.00 828.51,455.00 832.71,455.00 836.90,455.00 841.10,455.00 845.29,455.00 849.49,455.00 853.69,455.00 857.88,455.00 862.08,455.00 866.27,455.00 870.47,455.00 874.67,455.00 878.86,455.00 883.06,455.00 887.25,455.00 891.45,455.00 895.65,455.00 899.84,455.00 904.04,455.00 908.24,455.00 912.43,455.00 916.63,455.00 920.82,455.00 925.02,455.00 929.22,455.00 933.41,455.00 937.61,455.00 941.80,455.00 946.00,455.00 950.20,455.00 954.39,455.00 958.59,455.00 962.78,455.00 966.98,455.00 971.18,455.00 975.37,455.00 979.57,455.00 983.76,455.00 987.96,455.00 992.16,455.00 996.35,455.00 1000.55,455.00 1004.75,455.00 1008.94,455.00 1013.14,455.00 1017.33,455.00 1021.53,455.00 1025.73,455.00 1029.92,455.00 1034.12,455.00 1038.31,455.00 1042.51,455.00 1046.71,455.00 1050.90,455.00 1055.10,455.00 1059.29,455.00 1063.49,455.00 1067.69,455.00 1071.88,455.00 1076.08,455.00 1080.27,455.00 1084.47,455.00 1088.67,455.00 1092.86,455.00 1097.06,455.00 1101.25,455.00 1105.45,455.00 1109.65,455.00 1113.84,455.00 1118.04,455.00 1122.24,455.00 1126.43,455.00 1130.63,455.00 1134.82,455.00 1139.02,455.00 1143.22,455.00 1147.41,455.00 1151.61,455.00 1155.80,455.00 1160.00,455.00"/>
<line x1="950" y1="610.0" x2="978" y2="610.0" stroke="#1864ab" stroke-width="3"/>
<text x="986" y="615.0" class="label">rotr7_word_value</text>
<polyline fill="none" stroke="#1864ab" stroke-width="2" points="90.00,744.01 94.20,761.76 98.39,778.73 102.59,794.41 106.78,808.34 110.98,820.10 115.18,829.37 119.37,835.85 123.57,839.37 127.76,839.81 131.96,837.17 136.16,831.51 140.35,823.02 144.55,811.93 148.75,798.58 152.94,783.36 157.14,766.71 161.33,749.13 165.53,731.13 169.73,713.25 173.92,696.01 178.12,679.91 182.31,665.44 186.51,653.02 190.71,643.01 194.90,635.70 199.10,631.33 203.29,630.00 207.49,631.77 211.69,636.57 215.88,644.28 220.08,654.65 224.27,667.39 228.47,682.12 232.67,698.41 236.86,715.78 241.06,733.71 245.25,751.68 249.45,769.16 253.65,785.63 257.84,800.62 262.04,813.67 266.24,824.40 270.43,832.50 274.63,837.73 278.82,839.94 283.02,839.05 287.22,835.10 291.41,828.21 295.61,818.57 299.80,806.47 304.00,792.26 308.20,776.37 312.39,759.26 316.59,741.44 320.78,723.43 324.98,705.75 329.18,688.94 333.37,673.49 337.57,659.84 341.76,648.41 345.96,639.53 350.16,633.46 354.35,630.38 358.55,630.38 362.75,633.46 366.94,639.53 371.14,648.41 375.33,659.84 379.53,673.49 383.73,688.94 387.92,705.75 392.12,723.43 396.31,741.44 400.51,759.26 404.71,776.37 408.90,792.26 413.10,806.47 417.29,818.57 421.49,828.21 425.69,835.10 429.88,839.05 434.08,839.94 438.27,837.73 442.47,832.50 446.67,824.40 450.86,813.67 455.06,800.62 459.25,785.63 463.45,769.16 467.65,751.68 471.84,733.71 476.04,715.78 480.24,698.41 484.43,682.12 488.63,667.39 492.82,654.65 497.02,644.28 501.22,636.57 505.41,631.77 509.61,630.00 513.80,631.33 518.00,635.70 522.20,643.01 526.39,653.02 530.59,665.44 534.78,679.91 538.98,696.01 543.18,713.25 547.37,731.13 551.57,749.13 555.76,766.71 559.96,783.36 564.16,798.58 568.35,811.93 572.55,823.02 576.75,831.51 580.94,837.17 585.14,839.81 589.33,839.37 593.53,835.85 597.73,829.37 601.92,820.10 606.12,808.34 610.31,794.41 614.51,778.73 618.71,761.76 622.90,744.01 627.10,725.99 631.29,708.24 635.49,691.27 639.69,675.59 643.88,661.66 648.08,649.90 652.27,640.63 656.47,634.15 660.67,630.63 664.86,630.19 669.06,632.83 673.25,638.49 677.45,646.98 681.65,658.07 685.84,671.42 690.04,686.64 694.24,703.29 698.43,720.87 702.63,738.87 706.82,756.75 711.02,773.99 715.22,790.09 719.41,804.56 723.61,816.98 727.80,826.99 732.00,834.30 736.20,838.67 740.39,840.00 744.59,838.23 748.78,833.43 752.98,825.72 757.18,815.35 761.37,802.61 765.57,787.88 769.76,771.59 773.96,754.22 778.16,736.29 782.35,718.32 786.55,700.84 790.75,684.37 794.94,669.38 799.14,656.33 803.33,645.60 807.53,637.50 811.73,632.27 815.92,630.06 820.12,630.95 824.31,634.90 828.51,641.79 832.71,651.43 836.90,663.53 841.10,677.74 845.29,693.63 849.49,710.74 853.69,728.56 857.88,746.57 862.08,764.25 866.27,781.06 870.47,796.51 874.67,810.16 878.86,821.59 883.06,830.47 887.25,836.54 891.45,839.62 895.65,839.62 899.84,836.54 904.04,830.47 908.24,821.59 912.43,810.16 916.63,796.51 920.82,781.06 925.02,764.25 929.22,746.57 933.41,728.56 937.61,710.74 941.80,693.63 946.00,677.74 950.20,663.53 954.39,651.43 958.59,641.79 962.78,634.90 966.98,630.95 971.18,630.06 975.37,632.27 979.57,637.50 983.76,645.60 987.96,656.33 992.16,669.38 996.35,684.37 1000.55,700.84 1004.75,718.32 1008.94,736.29 1013.14,754.22 1017.33,771.59 1021.53,787.88 1025.73,802.61 1029.92,815.35 1034.12,825.72 1038.31,833.43 1042.51,838.23 1046.71,840.00 1050.90,838.67 1055.10,834.30 1059.29,826.99 1063.49,816.98 1067.69,804.56 1071.88,790.09 1076.08,773.99 1080.27,756.75 1084.47,738.87 1088.67,720.87 1092.86,703.29 1097.06,686.64 1101.25,671.42 1105.45,658.07 1109.65,646.98 1113.84,638.49 1118.04,632.83 1122.24,630.19 1126.43,630.63 1130.63,634.15 1134.82,640.63 1139.02,649.90 1143.22,661.66 1147.41,675.59 1151.61,691.27 1155.80,708.24 1160.00,725.99"/>
<line x1="950" y1="632.0" x2="978" y2="632.0" stroke="#c92a2a" stroke-width="3"/>
<text x="986" y="637.0" class="label">sigma0_word_value</text>
<polyline fill="none" stroke="#c92a2a" stroke-width="2" points="90.00,735.05 94.20,735.05 98.39,735.05 102.59,735.04 106.78,735.04 110.98,735.03 115.18,735.02 119.37,735.01 123.57,735.01 127.76,735.00 131.96,734.99 136.16,734.98 140.35,734.97 144.55,734.97 148.75,734.96 152.94,734.95 157.14,734.95 161.33,734.95 165.53,734.95 169.73,734.95 173.92,734.95 178.12,734.96 182.31,734.96 186.51,734.97 190.71,734.98 194.90,734.98 199.10,734.99 203.29,735.00 207.49,735.01 211.69,735.02 215.88,735.03 220.08,735.03 224.27,735.04 228.47,735.04 232.67,735.05 236.86,735.05 241.06,735.05 245.25,735.05 249.45,735.05 253.65,735.04 257.84,735.04 262.04,735.03 266.24,735.03 270.43,735.02 274.63,735.01 278.82,735.00 283.02,734.99 287.22,734.98 291.41,734.98 295.61,734.97 299.80,734.96 304.00,734.96 308.20,734.95 312.39,734.95 316.59,734.95 320.78,734.95 324.98,734.95 329.18,734.95 333.37,734.96 337.57,734.96 341.76,734.97 345.96,734.98 350.16,734.99 354.35,735.00 358.55,735.00 362.75,735.01 366.94,735.02 371.14,735.03 375.33,735.04 379.53,735.04 383.73,735.05 387.92,735.05 392.12,735.05 396.31,735.05 400.51,735.05 404.71,735.05 408.90,735.04 413.10,735.04 417.29,735.03 421.49,735.02 425.69,735.02 429.88,735.01 434.08,735.00 438.27,734.99 442.47,734.98 446.67,734.97 450.86,734.97 455.06,734.96 459.25,734.96 463.45,734.95 467.65,734.95 471.84,734.95 476.04,734.95 480.24,734.95 484.43,734.96 488.63,734.96 492.82,734.97 497.02,734.97 501.22,734.98 505.41,734.99 509.61,735.00 513.80,735.01 518.00,735.02 522.20,735.02 526.39,735.03 530.59,735.04 534.78,735.04 538.98,735.05 543.18,735.05 547.37,735.05 551.57,735.05 555.76,735.05 559.96,735.05 564.16,735.04 568.35,735.03 572.55,735.03 576.75,735.02 580.94,735.01 585.14,735.00 589.33,734.99 593.53,734.99 597.73,734.98 601.92,734.97 606.12,734.96 610.31,734.96 614.51,734.95 618.71,734.95 622.90,734.95 627.10,734.95 631.29,734.95 635.49,734.95 639.69,734.96 643.88,734.96 648.08,734.97 652.27,734.98 656.47,734.99 660.67,734.99 664.86,735.00 669.06,735.01 673.25,735.02 677.45,735.03 681.65,735.03 685.84,735.04 690.04,735.05 694.24,735.05 698.43,735.05 702.63,735.05 706.82,735.05 711.02,735.05 715.22,735.04 719.41,735.04 723.61,735.03 727.80,735.02 732.00,735.02 736.20,735.01 740.39,735.00 744.59,734.99 748.78,734.98 752.98,734.97 757.18,734.97 761.37,734.96 765.57,734.96 769.76,734.95 773.96,734.95 778.16,734.95 782.35,734.95 786.55,734.95 790.75,734.96 794.94,734.96 799.14,734.97 803.33,734.97 807.53,734.98 811.73,734.99 815.92,735.00 820.12,735.01 824.31,735.02 828.51,735.02 832.71,735.03 836.90,735.04 841.10,735.04 845.29,735.05 849.49,735.05 853.69,735.05 857.88,735.05 862.08,735.05 866.27,735.05 870.47,735.04 874.67,735.04 878.86,735.03 883.06,735.02 887.25,735.01 891.45,735.00 895.65,735.00 899.84,734.99 904.04,734.98 908.24,734.97 912.43,734.96 916.63,734.96 920.82,734.95 925.02,734.95 929.22,734.95 933.41,734.95 937.61,734.95 941.80,734.95 946.00,734.96 950.20,734.96 954.39,734.97 958.59,734.98 962.78,734.98 966.98,734.99 971.18,735.00 975.37,735.01 979.57,735.02 983.76,735.03 987.96,735.03 992.16,735.04 996.35,735.04 1000.55,735.05 1004.75,735.05 1008.94,735.05 1013.14,735.05 1017.33,735.05 1021.53,735.04 1025.73,735.04 1029.92,735.03 1034.12,735.03 1038.31,735.02 1042.51,735.01 1046.71,735.00 1050.90,734.99 1055.10,734.98 1059.29,734.98 1063.49,734.97 1067.69,734.96 1071.88,734.96 1076.08,734.95 1080.27,734.95 1084.47,734.95 1088.67,734.95 1092.86,734.95 1097.06,734.95 1101.25,734.96 1105.45,734.97 1109.65,734.97 1113.84,734.98 1118.04,734.99 1122.24,735.00 1126.43,735.01 1130.63,735.01 1134.82,735.02 1139.02,735.03 1143.22,735.04 1147.41,735.04 1151.61,735.05 1155.80,735.05 1160.00,735.05"/>
<line x1="950" y1="654.0" x2="978" y2="654.0" stroke="#2b8a3e" stroke-width="3"/>
<text x="986" y="659.0" class="label">rotr7_top_byte</text>
<polyline fill="none" stroke="#2b8a3e" stroke-width="2" points="90.00,735.00 94.20,735.00 98.39,735.00 102.59,735.00 106.78,735.00 110.98,735.00 115.18,735.00 119.37,735.00 123.57,735.00 127.76,735.00 131.96,735.00 136.16,735.00 140.35,735.00 144.55,735.00 148.75,735.00 152.94,735.00 157.14,735.00 161.33,735.00 165.53,735.00 169.73,735.00 173.92,735.00 178.12,735.00 182.31,735.00 186.51,735.00 190.71,735.00 194.90,735.00 199.10,735.00 203.29,735.00 207.49,735.00 211.69,735.00 215.88,735.00 220.08,735.00 224.27,735.00 228.47,735.00 232.67,735.00 236.86,735.00 241.06,735.00 245.25,735.00 249.45,735.00 253.65,735.00 257.84,735.00 262.04,735.00 266.24,735.00 270.43,735.00 274.63,735.00 278.82,735.00 283.02,735.00 287.22,735.00 291.41,735.00 295.61,735.00 299.80,735.00 304.00,735.00 308.20,735.00 312.39,735.00 316.59,735.00 320.78,735.00 324.98,735.00 329.18,735.00 333.37,735.00 337.57,735.00 341.76,735.00 345.96,735.00 350.16,735.00 354.35,735.00 358.55,735.00 362.75,735.00 366.94,735.00 371.14,735.00 375.33,735.00 379.53,735.00 383.73,735.00 387.92,735.00 392.12,735.00 396.31,735.00 400.51,735.00 404.71,735.00 408.90,735.00 413.10,735.00 417.29,735.00 421.49,735.00 425.69,735.00 429.88,735.00 434.08,735.00 438.27,735.00 442.47,735.00 446.67,735.00 450.86,735.00 455.06,735.00 459.25,735.00 463.45,735.00 467.65,735.00 471.84,735.00 476.04,735.00 480.24,735.00 484.43,735.00 488.63,735.00 492.82,735.00 497.02,735.00 501.22,735.00 505.41,735.00 509.61,735.00 513.80,735.00 518.00,735.00 522.20,735.00 526.39,735.00 530.59,735.00 534.78,735.00 538.98,735.00 543.18,735.00 547.37,735.00 551.57,735.00 555.76,735.00 559.96,735.00 564.16,735.00 568.35,735.00 572.55,735.00 576.75,735.00 580.94,735.00 585.14,735.00 589.33,735.00 593.53,735.00 597.73,735.00 601.92,735.00 606.12,735.00 610.31,735.00 614.51,735.00 618.71,735.00 622.90,735.00 627.10,735.00 631.29,735.00 635.49,735.00 639.69,735.00 643.88,735.00 648.08,735.00 652.27,735.00 656.47,735.00 660.67,735.00 664.86,735.00 669.06,735.00 673.25,735.00 677.45,735.00 681.65,735.00 685.84,735.00 690.04,735.00 694.24,735.00 698.43,735.00 702.63,735.00 706.82,735.00 711.02,735.00 715.22,735.00 719.41,735.00 723.61,735.00 727.80,735.00 732.00,735.00 736.20,735.00 740.39,735.00 744.59,735.00 748.78,735.00 752.98,735.00 757.18,735.00 761.37,735.00 765.57,735.00 769.76,735.00 773.96,735.00 778.16,735.00 782.35,735.00 786.55,735.00 790.75,735.00 794.94,735.00 799.14,735.00 803.33,735.00 807.53,735.00 811.73,735.00 815.92,735.00 820.12,735.00 824.31,735.00 828.51,735.00 832.71,735.00 836.90,735.00 841.10,735.00 845.29,735.00 849.49,735.00 853.69,735.00 857.88,735.00 862.08,735.00 866.27,735.00 870.47,735.00 874.67,735.00 878.86,735.00 883.06,735.00 887.25,735.00 891.45,735.00 895.65,735.00 899.84,735.00 904.04,735.00 908.24,735.00 912.43,735.00 916.63,735.00 920.82,735.00 925.02,735.00 929.22,735.00 933.41,735.00 937.61,735.00 941.80,735.00 946.00,735.00 950.20,735.00 954.39,735.00 958.59,735.00 962.78,735.00 966.98,735.00 971.18,735.00 975.37,735.00 979.57,735.00 983.76,735.00 987.96,735.00 992.16,735.00 996.35,735.00 1000.55,735.00 1004.75,735.00 1008.94,735.00 1013.14,735.00 1017.33,735.00 1021.53,735.00 1025.73,735.00 1029.92,735.00 1034.12,735.00 1038.31,735.00 1042.51,735.00 1046.71,735.00 1050.90,735.00 1055.10,735.00 1059.29,735.00 1063.49,735.00 1067.69,735.00 1071.88,735.00 1076.08,735.00 1080.27,735.00 1084.47,735.00 1088.67,735.00 1092.86,735.00 1097.06,735.00 1101.25,735.00 1105.45,735.00 1109.65,735.00 1113.84,735.00 1118.04,735.00 1122.24,735.00 1126.43,735.00 1130.63,735.00 1134.82,735.00 1139.02,735.00 1143.22,735.00 1147.41,735.00 1151.61,735.00 1155.80,735.00 1160.00,735.00"/>
<line x1="950" y1="676.0" x2="978" y2="676.0" stroke="#f08c00" stroke-width="3"/>
<text x="986" y="681.0" class="label">sigma0_top_byte</text>
<polyline fill="none" stroke="#f08c00" stroke-width="2" points="90.00,735.00 94.20,735.00 98.39,735.00 102.59,735.00 106.78,735.00 110.98,735.00 115.18,735.00 119.37,735.00 123.57,735.00 127.76,735.00 131.96,735.00 136.16,735.00 140.35,735.00 144.55,735.00 148.75,735.00 152.94,735.00 157.14,735.00 161.33,735.00 165.53,735.00 169.73,735.00 173.92,735.00 178.12,735.00 182.31,735.00 186.51,735.00 190.71,735.00 194.90,735.00 199.10,735.00 203.29,735.00 207.49,735.00 211.69,735.00 215.88,735.00 220.08,735.00 224.27,735.00 228.47,735.00 232.67,735.00 236.86,735.00 241.06,735.00 245.25,735.00 249.45,735.00 253.65,735.00 257.84,735.00 262.04,735.00 266.24,735.00 270.43,735.00 274.63,735.00 278.82,735.00 283.02,735.00 287.22,735.00 291.41,735.00 295.61,735.00 299.80,735.00 304.00,735.00 308.20,735.00 312.39,735.00 316.59,735.00 320.78,735.00 324.98,735.00 329.18,735.00 333.37,735.00 337.57,735.00 341.76,735.00 345.96,735.00 350.16,735.00 354.35,735.00 358.55,735.00 362.75,735.00 366.94,735.00 371.14,735.00 375.33,735.00 379.53,735.00 383.73,735.00 387.92,735.00 392.12,735.00 396.31,735.00 400.51,735.00 404.71,735.00 408.90,735.00 413.10,735.00 417.29,735.00 421.49,735.00 425.69,735.00 429.88,735.00 434.08,735.00 438.27,735.00 442.47,735.00 446.67,735.00 450.86,735.00 455.06,735.00 459.25,735.00 463.45,735.00 467.65,735.00 471.84,735.00 476.04,735.00 480.24,735.00 484.43,735.00 488.63,735.00 492.82,735.00 497.02,735.00 501.22,735.00 505.41,735.00 509.61,735.00 513.80,735.00 518.00,735.00 522.20,735.00 526.39,735.00 530.59,735.00 534.78,735.00 538.98,735.00 543.18,735.00 547.37,735.00 551.57,735.00 555.76,735.00 559.96,735.00 564.16,735.00 568.35,735.00 572.55,735.00 576.75,735.00 580.94,735.00 585.14,735.00 589.33,735.00 593.53,735.00 597.73,735.00 601.92,735.00 606.12,735.00 610.31,735.00 614.51,735.00 618.71,735.00 622.90,735.00 627.10,735.00 631.29,735.00 635.49,735.00 639.69,735.00 643.88,735.00 648.08,735.00 652.27,735.00 656.47,735.00 660.67,735.00 664.86,735.00 669.06,735.00 673.25,735.00 677.45,735.00 681.65,735.00 685.84,735.00 690.04,735.00 694.24,735.00 698.43,735.00 702.63,735.00 706.82,735.00 711.02,735.00 715.22,735.00 719.41,735.00 723.61,735.00 727.80,735.00 732.00,735.00 736.20,735.00 740.39,735.00 744.59,735.00 748.78,735.00 752.98,735.00 757.18,735.00 761.37,735.00 765.57,735.00 769.76,735.00 773.96,735.00 778.16,735.00 782.35,735.00 786.55,735.00 790.75,735.00 794.94,735.00 799.14,735.00 803.33,735.00 807.53,735.00 811.73,735.00 815.92,735.00 820.12,735.00 824.31,735.00 828.51,735.00 832.71,735.00 836.90,735.00 841.10,735.00 845.29,735.00 849.49,735.00 853.69,735.00 857.88,735.00 862.08,735.00 866.27,735.00 870.47,735.00 874.67,735.00 878.86,735.00 883.06,735.00 887.25,735.00 891.45,735.00 895.65,735.00 899.84,735.00 904.04,735.00 908.24,735.00 912.43,735.00 916.63,735.00 920.82,735.00 925.02,735.00 929.22,735.00 933.41,735.00 937.61,735.00 941.80,735.00 946.00,735.00 950.20,735.00 954.39,735.00 958.59,735.00 962.78,735.00 966.98,735.00 971.18,735.00 975.37,735.00 979.57,735.00 983.76,735.00 987.96,735.00 992.16,735.00 996.35,735.00 1000.55,735.00 1004.75,735.00 1008.94,735.00 1013.14,735.00 1017.33,735.00 1021.53,735.00 1025.73,735.00 1029.92,735.00 1034.12,735.00 1038.31,735.00 1042.51,735.00 1046.71,735.00 1050.90,735.00 1055.10,735.00 1059.29,735.00 1063.49,735.00 1067.69,735.00 1071.88,735.00 1076.08,735.00 1080.27,735.00 1084.47,735.00 1088.67,735.00 1092.86,735.00 1097.06,735.00 1101.25,735.00 1105.45,735.00 1109.65,735.00 1113.84,735.00 1118.04,735.00 1122.24,735.00 1126.43,735.00 1130.63,735.00 1134.82,735.00 1139.02,735.00 1143.22,735.00 1147.41,735.00 1151.61,735.00 1155.80,735.00 1160.00,735.00"/>
</svg>